<svg xmlns="http://www.w3.org/2000/svg" xmlns:xlink="http://www.w3.org/1999/xlink" viewBox="210 650 1070 280" preserveAspectRatio="xMidYMid meet" version="1.0"><defs><g/></defs><g fill="#000000" fill-opacity="1"><g transform="translate(238.615326, 787.499912)"><g><path d="M 29.65625 -97.484375 C 29.65625 -90.859375 28.570312 -82.78125 26.40625 -73.25 C 24.25 -63.71875 21.25 -52 17.40625 -38.09375 C 15.03125 -29.625 13.34375 -23.289062 12.34375 -19.09375 C 11.21875 -14.644531 9.457031 -11.457031 7.0625 -9.53125 C 4.664062 -7.613281 1.15625 -6.65625 -3.46875 -6.65625 C -4.707031 -5.113281 -5.328125 -3.457031 -5.328125 -1.6875 L -4.703125 0 L 86.65625 0 L 96.59375 -27.078125 C 96.300781 -27.140625 95.648438 -27.273438 94.640625 -27.484375 C 93.640625 -27.691406 92.664062 -27.796875 91.71875 -27.796875 C 89.644531 -27.796875 87.453125 -27.289062 85.140625 -26.28125 C 83.660156 -20.476562 80.640625 -15.945312 76.078125 -12.6875 C 71.523438 -9.4375 66.082031 -7.8125 59.75 -7.8125 L 30.984375 -7.8125 C 29.617188 -7.8125 28.519531 -8.132812 27.6875 -8.78125 C 26.863281 -9.4375 26.453125 -10.296875 26.453125 -11.359375 C 26.453125 -15.796875 26.941406 -20.28125 27.921875 -24.8125 C 28.898438 -29.34375 30.335938 -34.984375 32.234375 -41.734375 C 34.003906 -48.003906 35.21875 -52.675781 35.875 -55.75 L 63.03125 -55.75 C 65.875 -55.75 67.988281 -54.375 69.375 -51.625 C 70.769531 -48.875 71.644531 -45.753906 72 -42.265625 L 76.09375 -42.265625 L 84.25 -73.328125 C 81.820312 -73.328125 79.957031 -72.867188 78.65625 -71.953125 C 77.351562 -71.035156 75.992188 -69.691406 74.578125 -67.921875 C 73.097656 -66.085938 71.675781 -64.710938 70.3125 -63.796875 C 68.957031 -62.878906 67.003906 -62.421875 64.453125 -62.421875 L 37.375 -62.421875 L 45.8125 -98.546875 C 46.875 -103.285156 49.09375 -105.65625 52.46875 -105.65625 L 82.125 -105.65625 C 85.195312 -105.65625 87.648438 -104.796875 89.484375 -103.078125 C 91.328125 -101.359375 92.675781 -99.316406 93.53125 -96.953125 C 94.394531 -94.585938 95.269531 -91.539062 96.15625 -87.8125 C 96.269531 -87.394531 96.476562 -86.566406 96.78125 -85.328125 C 97.957031 -84.253906 99.195312 -83.71875 100.5 -83.71875 C 102.28125 -83.71875 104.054688 -84.488281 105.828125 -86.03125 L 105.734375 -112.21875 L 18.296875 -112.21875 C 17.753906 -111.570312 17.304688 -110.832031 16.953125 -110 C 16.597656 -109.175781 16.421875 -108.347656 16.421875 -107.515625 C 16.421875 -107.222656 16.507812 -106.867188 16.6875 -106.453125 C 16.863281 -106.035156 16.984375 -105.769531 17.046875 -105.65625 C 20.835938 -105.53125 23.882812 -104.945312 26.1875 -103.90625 C 28.5 -102.875 29.65625 -100.734375 29.65625 -97.484375 Z M 29.65625 -97.484375 "/></g></g></g><g fill="#000000" fill-opacity="1"><g transform="translate(336.540259, 787.499912)"><g><path d="M 43.328125 -109.03125 C 44.097656 -112.101562 44.539062 -114.5 44.65625 -116.21875 C 44.65625 -117.34375 44.40625 -118.140625 43.90625 -118.609375 C 43.40625 -119.085938 42.648438 -119.328125 41.640625 -119.328125 C 41.285156 -119.328125 40.691406 -119.265625 39.859375 -119.140625 L 34.890625 -118.53125 C 28.617188 -117.757812 24.0625 -117.148438 21.21875 -116.703125 C 18.375 -116.265625 16.148438 -115.703125 14.546875 -115.015625 C 12.953125 -114.335938 12.15625 -113.4375 12.15625 -112.3125 C 12.15625 -110.769531 12.867188 -109.878906 14.296875 -109.640625 L 28.59375 -108.765625 C 24.5625 -93.609375 21.363281 -81.882812 19 -73.59375 C 15.03125 -59.332031 12.378906 -49.210938 11.046875 -43.234375 C 9.722656 -37.253906 9.0625 -31.660156 9.0625 -26.453125 C 9.0625 -16.453125 11.457031 -9.257812 16.25 -4.875 C 21.039062 -0.5 27.582031 1.6875 35.875 1.6875 C 44.15625 1.6875 51.976562 -0.796875 59.34375 -5.765625 C 66.71875 -10.742188 72.625 -17.429688 77.0625 -25.828125 C 81.5 -34.234375 83.71875 -43.289062 83.71875 -53 C 83.71875 -58.269531 82.625 -62.875 80.4375 -66.8125 C 78.25 -70.75 75.242188 -73.78125 71.421875 -75.90625 C 67.609375 -78.039062 63.304688 -79.109375 58.515625 -79.109375 C 53.660156 -79.109375 48.789062 -77.894531 43.90625 -75.46875 C 39.019531 -73.039062 34.65625 -69.046875 30.8125 -63.484375 Z M 69.421875 -52.734375 C 69.421875 -46.878906 68.03125 -40.351562 65.25 -33.15625 C 62.46875 -25.96875 58.664062 -19.859375 53.84375 -14.828125 C 49.019531 -9.796875 43.648438 -7.28125 37.734375 -7.28125 C 33.472656 -7.28125 30.171875 -8.65625 27.828125 -11.40625 C 25.492188 -14.15625 24.328125 -18.9375 24.328125 -25.75 C 24.328125 -33.144531 25.554688 -40.40625 28.015625 -47.53125 C 30.472656 -54.664062 34.097656 -60.554688 38.890625 -65.203125 C 43.679688 -69.859375 49.390625 -72.1875 56.015625 -72.1875 C 58.859375 -72.1875 61.285156 -71.253906 63.296875 -69.390625 C 65.316406 -67.523438 66.84375 -65.109375 67.875 -62.140625 C 68.90625 -59.179688 69.421875 -56.046875 69.421875 -52.734375 Z M 69.421875 -52.734375 "/></g></g></g><g fill="#000000" fill-opacity="1"><g transform="translate(422.125121, 787.499912)"><g><path d="M 29.65625 -77.421875 C 24.269531 -77.421875 19.3125 -75.4375 14.78125 -71.46875 C 10.25 -67.5 5.765625 -62.257812 1.328125 -55.75 L 6.125 -51.234375 C 8.3125 -54.722656 10.113281 -57.472656 11.53125 -59.484375 C 12.957031 -61.492188 14.691406 -63.429688 16.734375 -65.296875 C 18.773438 -67.160156 20.773438 -68.09375 22.734375 -68.09375 C 24.148438 -68.09375 25.125 -67.601562 25.65625 -66.625 C 26.1875 -65.65625 26.453125 -64.722656 26.453125 -63.828125 C 26.453125 -61.046875 25.753906 -56.53125 24.359375 -50.28125 C 22.972656 -44.039062 20.476562 -35.476562 16.875 -24.59375 C 16.101562 -22.28125 15.71875 -21.125 15.71875 -21.125 C 14.53125 -17.8125 13.640625 -15.117188 13.046875 -13.046875 C 12.453125 -10.972656 12.15625 -9.050781 12.15625 -7.28125 C 12.15625 -4.382812 12.644531 -2.253906 13.625 -0.890625 C 14.601562 0.472656 15.890625 1.15625 17.484375 1.15625 C 19.910156 1.15625 22.039062 0.296875 23.875 -1.421875 C 25.71875 -3.140625 27.613281 -5.800781 29.5625 -9.40625 C 31.925781 -14.4375 35.195312 -20.472656 39.375 -27.515625 C 43.550781 -34.566406 47.859375 -41.019531 52.296875 -46.875 C 56.734375 -52.738281 60.550781 -56.46875 63.75 -58.0625 C 64.519531 -58.476562 65.523438 -58.921875 66.765625 -59.390625 C 68.003906 -59.867188 68.976562 -60.253906 69.6875 -60.546875 C 72.59375 -61.671875 74.945312 -62.644531 76.75 -63.46875 C 78.5625 -64.300781 80.101562 -65.367188 81.375 -66.671875 C 82.644531 -67.972656 83.28125 -69.515625 83.28125 -71.296875 C 83.28125 -73.367188 82.421875 -75.203125 80.703125 -76.796875 C 78.984375 -78.390625 77.085938 -79.1875 75.015625 -79.1875 C 70.878906 -79.1875 66.8125 -77.394531 62.8125 -73.8125 C 58.820312 -70.238281 55.285156 -66.082031 52.203125 -61.34375 C 49.128906 -56.613281 45.695312 -50.90625 41.90625 -44.21875 C 40.425781 -41.550781 39.125 -39.300781 38 -37.46875 L 29.828125 -22.90625 L 28.140625 -23.609375 L 29.75 -28.5 C 33.0625 -38.382812 35.5 -46.148438 37.0625 -51.796875 C 38.632812 -57.453125 39.421875 -62.207031 39.421875 -66.0625 C 39.421875 -69.425781 38.601562 -72.160156 36.96875 -74.265625 C 35.34375 -76.367188 32.90625 -77.421875 29.65625 -77.421875 Z M 29.65625 -77.421875 "/></g></g></g><g fill="#000000" fill-opacity="1"><g transform="translate(495.724999, 787.499912)"><g><path d="M 42.96875 -68.359375 C 42.96875 -71.796875 42.078125 -74.445312 40.296875 -76.3125 C 38.523438 -78.175781 35.597656 -79.109375 31.515625 -79.109375 C 25.535156 -79.109375 19.851562 -76.382812 14.46875 -70.9375 C 9.082031 -65.488281 4.613281 -59.210938 1.0625 -52.109375 L 5.765625 -47.859375 C 6.179688 -48.390625 6.566406 -48.976562 6.921875 -49.625 C 7.273438 -50.28125 7.628906 -50.90625 7.984375 -51.5 C 10.941406 -56.53125 13.753906 -60.71875 16.421875 -64.0625 C 19.085938 -67.40625 21.722656 -69.078125 24.328125 -69.078125 C 25.691406 -69.078125 26.769531 -68.644531 27.5625 -67.78125 C 28.363281 -66.925781 28.765625 -65.816406 28.765625 -64.453125 C 28.765625 -63.328125 28.394531 -61.710938 27.65625 -59.609375 C 26.914062 -57.515625 25.65625 -54.21875 23.875 -49.71875 C 20.6875 -41.84375 18.160156 -34.945312 16.296875 -29.03125 C 14.429688 -23.113281 13.5 -17.757812 13.5 -12.96875 C 13.5 -3.195312 18.378906 1.6875 28.140625 1.6875 C 33.523438 1.6875 38.984375 -0.929688 44.515625 -6.171875 C 50.054688 -11.410156 55.078125 -17.429688 59.578125 -24.234375 C 64.078125 -31.046875 69.109375 -39.304688 74.671875 -49.015625 C 76.742188 -52.796875 78.519531 -55.867188 80 -58.234375 L 81.421875 -57.53125 L 79.1875 -51.671875 L 78.21875 -49.1875 C 75.195312 -41.3125 72.785156 -34.351562 70.984375 -28.3125 C 69.179688 -22.28125 68.28125 -16.691406 68.28125 -11.546875 C 68.28125 -7.753906 69.3125 -4.597656 71.375 -2.078125 C 73.445312 0.429688 76.378906 1.6875 80.171875 1.6875 C 83.484375 1.6875 86.5 0.945312 89.21875 -0.53125 C 91.945312 -2.007812 94.460938 -4.019531 96.765625 -6.5625 C 99.078125 -9.113281 101.566406 -12.398438 104.234375 -16.421875 L 109.296875 -23.4375 L 104.234375 -27.515625 L 99.078125 -20.328125 C 95.828125 -15.773438 93.238281 -12.59375 91.3125 -10.78125 C 89.382812 -8.976562 87.359375 -8.078125 85.234375 -8.078125 C 82.804688 -8.078125 81.59375 -9.820312 81.59375 -13.3125 C 81.59375 -15.207031 82.066406 -17.875 83.015625 -21.3125 L 95.96875 -64.90625 C 96.445312 -67.03125 96.6875 -68.832031 96.6875 -70.3125 C 96.6875 -72.738281 96.195312 -74.8125 95.21875 -76.53125 C 94.238281 -78.25 92.863281 -79.109375 91.09375 -79.109375 C 88.070312 -79.109375 85.242188 -77.703125 82.609375 -74.890625 C 79.972656 -72.078125 77.03125 -68.210938 73.78125 -63.296875 L 71.5625 -60.015625 C 70.5 -58.421875 68.425781 -55.195312 65.34375 -50.34375 C 57.59375 -38.03125 50.921875 -28.082031 45.328125 -20.5 C 39.734375 -12.925781 35.457031 -9.140625 32.5 -9.140625 C 31.019531 -9.140625 29.832031 -9.703125 28.9375 -10.828125 C 28.050781 -11.953125 27.609375 -13.34375 27.609375 -15 C 27.609375 -17.726562 28.210938 -21.015625 29.421875 -24.859375 C 30.640625 -28.703125 32.460938 -33.703125 34.890625 -39.859375 C 37.554688 -46.671875 39.566406 -52.28125 40.921875 -56.6875 C 42.285156 -61.09375 42.96875 -64.984375 42.96875 -68.359375 Z M 42.96875 -68.359375 "/></g></g></g><g fill="#000000" fill-opacity="1"><g transform="translate(601.995032, 787.499912)"><g/></g></g><g fill="#000000" fill-opacity="1"><g transform="translate(638.397151, 787.499912)"><g><path d="M 29.390625 -15.09375 C 29.390625 -9.769531 33.738281 -6.957031 42.4375 -6.65625 L 41.203125 0 L -4.609375 0 L -5.328125 -1.6875 L -3.375 -6.65625 C 1.71875 -6.65625 5.625 -7.554688 8.34375 -9.359375 C 11.0625 -11.171875 13.015625 -14.441406 14.203125 -19.171875 C 14.378906 -20.117188 14.644531 -21.15625 15 -22.28125 C 25.65625 -65.375 30.984375 -90.085938 30.984375 -96.421875 C 30.984375 -99.972656 29.707031 -102.351562 27.15625 -103.5625 C 24.613281 -104.78125 21.273438 -105.476562 17.140625 -105.65625 C 17.078125 -105.945312 17 -106.359375 16.90625 -106.890625 C 16.820312 -107.421875 16.78125 -107.867188 16.78125 -108.234375 C 16.78125 -109.890625 17.132812 -111.21875 17.84375 -112.21875 L 63.828125 -112.21875 L 61.875 -105.65625 C 57.382812 -105.59375 53.847656 -104.539062 51.265625 -102.5 C 48.691406 -100.457031 46.929688 -97.25 45.984375 -92.875 L 39.421875 -61.34375 C 40.242188 -62 41.234375 -62.710938 42.390625 -63.484375 C 43.546875 -64.253906 44.742188 -65.113281 45.984375 -66.0625 C 56.640625 -73.632812 65.695312 -80.363281 73.15625 -86.25 C 80.613281 -92.144531 84.34375 -96.242188 84.34375 -98.546875 C 84.34375 -100.554688 83.4375 -102.164062 81.625 -103.375 C 79.820312 -104.59375 77.828125 -105.320312 75.640625 -105.5625 L 77.0625 -112.21875 L 122.515625 -112.21875 L 120.484375 -105.65625 C 117.398438 -105.414062 111.597656 -102.617188 103.078125 -97.265625 C 94.554688 -91.910156 86.710938 -86.210938 79.546875 -80.171875 C 72.390625 -74.128906 68.8125 -69.867188 68.8125 -67.390625 C 68.8125 -65.671875 71.046875 -60.738281 75.515625 -52.59375 C 79.984375 -44.457031 85.296875 -35.09375 91.453125 -24.5 L 95.53125 -17.484375 C 97.476562 -13.929688 99.457031 -11.28125 101.46875 -9.53125 C 103.488281 -7.789062 106.210938 -6.832031 109.640625 -6.65625 L 108.40625 0 L 69.34375 0 L 71.203125 -6.5625 C 73.335938 -6.75 75.410156 -7.3125 77.421875 -8.25 C 79.429688 -9.195312 80.4375 -10.5625 80.4375 -12.34375 C 80.4375 -13.226562 78.5 -17.695312 74.625 -25.75 C 70.75 -33.800781 65.523438 -44.484375 58.953125 -57.796875 L 55.75 -64.28125 L 37.203125 -51.5 C 36.546875 -48.539062 35.539062 -44.78125 34.1875 -40.21875 C 32.644531 -34.832031 31.457031 -30.226562 30.625 -26.40625 C 29.800781 -22.59375 29.390625 -18.820312 29.390625 -15.09375 Z M 29.390625 -15.09375 "/></g></g></g><g fill="#000000" fill-opacity="1"><g transform="translate(754.166352, 787.499912)"><g><path d="M 94.46875 -25.296875 C 91.03125 -20.742188 87.847656 -16.972656 84.921875 -13.984375 C 81.992188 -10.992188 79.226562 -9.5 76.625 -9.5 C 74.664062 -9.5 73.253906 -10.28125 72.390625 -11.84375 C 71.535156 -13.414062 71.109375 -15.414062 71.109375 -17.84375 C 71.109375 -20.75 71.566406 -24.179688 72.484375 -28.140625 C 73.410156 -32.109375 74.671875 -36.640625 76.265625 -41.734375 L 84.4375 -68.28125 C 84.726562 -69.457031 84.875 -70.222656 84.875 -70.578125 C 84.875 -72.296875 84.148438 -73.742188 82.703125 -74.921875 C 81.253906 -76.109375 79.492188 -76.703125 77.421875 -76.703125 C 76.117188 -76.703125 75.082031 -76.363281 74.3125 -75.6875 C 73.539062 -75.007812 72.945312 -74.046875 72.53125 -72.796875 L 68.984375 -61.171875 C 68.804688 -63.660156 67.929688 -66.296875 66.359375 -69.078125 C 64.796875 -71.859375 62.445312 -74.222656 59.3125 -76.171875 C 56.175781 -78.128906 52.238281 -79.109375 47.5 -79.109375 C 40.039062 -79.109375 33.160156 -76.695312 26.859375 -71.875 C 20.554688 -67.050781 15.550781 -60.742188 11.84375 -52.953125 C 8.144531 -45.171875 6.296875 -37.050781 6.296875 -28.59375 C 6.296875 -21.78125 7.390625 -16.109375 9.578125 -11.578125 C 11.773438 -7.054688 14.660156 -3.710938 18.234375 -1.546875 C 21.816406 0.609375 25.710938 1.6875 29.921875 1.6875 C 43.472656 1.6875 53.921875 -6.65625 61.265625 -23.34375 C 60.492188 -18.082031 60.109375 -14.914062 60.109375 -13.84375 C 60.109375 -9.582031 60.769531 -6.28125 62.09375 -3.9375 C 63.425781 -1.601562 64.878906 -0.0546875 66.453125 0.703125 C 68.023438 1.472656 69.375 1.859375 70.5 1.859375 C 76.0625 1.859375 81.398438 -0.679688 86.515625 -5.765625 C 91.640625 -10.859375 96.453125 -16.75 100.953125 -23.4375 L 96.15625 -27.515625 Z M 65.171875 -51.765625 C 65.171875 -45.546875 63.675781 -39.003906 60.6875 -32.140625 C 57.695312 -25.273438 53.832031 -19.546875 49.09375 -14.953125 C 44.363281 -10.367188 39.539062 -8.078125 34.625 -8.078125 C 30.539062 -8.078125 27.269531 -10.03125 24.8125 -13.9375 C 22.351562 -17.84375 21.125 -23.46875 21.125 -30.8125 C 21.125 -37.96875 22.585938 -44.609375 25.515625 -50.734375 C 28.453125 -56.859375 32.109375 -61.726562 36.484375 -65.34375 C 40.867188 -68.957031 44.984375 -70.765625 48.828125 -70.765625 C 51.785156 -70.765625 54.519531 -69.875 57.03125 -68.09375 C 59.550781 -66.320312 61.535156 -63.96875 62.984375 -61.03125 C 64.441406 -58.101562 65.171875 -55.015625 65.171875 -51.765625 Z M 65.171875 -51.765625 "/></g></g></g><g fill="#000000" fill-opacity="1"><g transform="translate(850.404519, 787.499912)"><g><path d="M 76.890625 -21.921875 C 72.273438 -15.410156 67.066406 -9.992188 61.265625 -5.671875 C 55.460938 -1.359375 49.332031 1.0625 42.875 1.59375 L 42 13.5 C 49.863281 14.5625 53.796875 17.753906 53.796875 23.078125 C 53.796875 26.335938 52.71875 29.253906 50.5625 31.828125 C 48.40625 34.398438 45.59375 36.410156 42.125 37.859375 C 38.664062 39.316406 35.039062 40.046875 31.25 40.046875 C 28.113281 40.046875 24.914062 39.363281 21.65625 38 L 22.640625 35.78125 C 24.472656 36.550781 26.484375 36.9375 28.671875 36.9375 C 30.867188 36.9375 32.972656 36.460938 34.984375 35.515625 C 36.992188 34.566406 38.617188 33.234375 39.859375 31.515625 C 41.109375 29.796875 41.734375 27.84375 41.734375 25.65625 C 41.734375 22.988281 40.710938 20.988281 38.671875 19.65625 C 36.628906 18.332031 34.007812 17.492188 30.8125 17.140625 L 37.375 1.515625 C 31.695312 0.972656 26.472656 -0.890625 21.703125 -4.078125 C 16.941406 -7.273438 13.179688 -11.519531 10.421875 -16.8125 C 7.671875 -22.113281 6.296875 -28.019531 6.296875 -34.53125 C 6.296875 -42.34375 8.128906 -49.679688 11.796875 -56.546875 C 15.472656 -63.421875 20.414062 -68.898438 26.625 -72.984375 C 32.84375 -77.066406 39.5625 -79.109375 46.78125 -79.109375 C 50.101562 -79.109375 54.023438 -78.378906 58.546875 -76.921875 C 63.078125 -75.472656 66.984375 -73.375 70.265625 -70.625 C 73.554688 -67.875 75.203125 -64.691406 75.203125 -61.078125 C 75.203125 -59.128906 74.679688 -57.679688 73.640625 -56.734375 C 72.609375 -55.785156 71 -55.3125 68.8125 -55.3125 C 67.207031 -55.3125 65.738281 -55.929688 64.40625 -57.171875 C 63.082031 -58.421875 61.382812 -60.375 59.3125 -63.03125 C 56.820312 -66.226562 54.570312 -68.6875 52.5625 -70.40625 C 50.550781 -72.125 48.242188 -72.984375 45.640625 -72.984375 C 41.078125 -72.984375 36.929688 -71.039062 33.203125 -67.15625 C 29.472656 -63.28125 26.554688 -58.335938 24.453125 -52.328125 C 22.359375 -46.328125 21.3125 -40.367188 21.3125 -34.453125 C 21.3125 -29.828125 22.0625 -25.578125 23.5625 -21.703125 C 25.070312 -17.828125 27.363281 -14.707031 30.4375 -12.34375 C 33.519531 -9.976562 37.3125 -8.796875 41.8125 -8.796875 C 45.957031 -8.796875 49.71875 -9.632812 53.09375 -11.3125 C 56.46875 -13 59.425781 -15.113281 61.96875 -17.65625 C 64.507812 -20.207031 67.265625 -23.378906 70.234375 -27.171875 Z M 76.890625 -21.921875 "/></g></g></g><g fill="#000000" fill-opacity="1"><g transform="translate(927.022844, 787.499912)"><g><path d="M 86.03125 -23.4375 C 89.875 -32.132812 92.921875 -39.8125 95.171875 -46.46875 C 97.421875 -53.132812 98.546875 -58.984375 98.546875 -64.015625 C 98.546875 -68.984375 97.507812 -72.738281 95.4375 -75.28125 C 93.363281 -77.832031 89.875 -79.109375 84.96875 -79.109375 C 79.875 -79.109375 74.367188 -76.335938 68.453125 -70.796875 C 62.535156 -65.265625 57.132812 -59.003906 52.25 -52.015625 C 47.363281 -45.035156 42.226562 -37.164062 36.84375 -28.40625 L 33.203125 -22.640625 L 31.515625 -23.609375 L 32.3125 -25.390625 C 33.144531 -27.222656 34.429688 -30.742188 36.171875 -35.953125 C 37.921875 -41.160156 39.503906 -46.578125 40.921875 -52.203125 C 42.347656 -57.828125 43.0625 -62.382812 43.0625 -65.875 C 43.0625 -69.601562 42.171875 -72.441406 40.390625 -74.390625 C 38.617188 -76.347656 36.132812 -77.328125 32.9375 -77.328125 C 28.789062 -77.328125 24.972656 -76.257812 21.484375 -74.125 C 17.992188 -72 14.898438 -69.378906 12.203125 -66.265625 C 9.515625 -63.160156 6.78125 -59.476562 4 -55.21875 L 1.59375 -51.578125 L 6.65625 -47.140625 L 8.515625 -50.078125 C 11.179688 -54.210938 13.375 -57.445312 15.09375 -59.78125 C 16.8125 -62.125 18.601562 -64.09375 20.46875 -65.6875 C 22.332031 -67.289062 24.148438 -68.09375 25.921875 -68.09375 C 27.285156 -68.09375 28.25 -67.585938 28.8125 -66.578125 C 29.375 -65.578125 29.65625 -64.484375 29.65625 -63.296875 C 29.65625 -59.390625 28.601562 -53.691406 26.5 -46.203125 C 24.394531 -38.722656 21.566406 -29.625 18.015625 -18.90625 L 17.046875 -15.890625 C 15.921875 -12.515625 15.359375 -9.675781 15.359375 -7.375 C 15.359375 -4.46875 16.082031 -2.226562 17.53125 -0.65625 C 18.976562 0.90625 20.859375 1.6875 23.171875 1.6875 C 24.535156 1.6875 25.925781 1.050781 27.34375 -0.21875 C 28.757812 -1.488281 30.03125 -2.953125 31.15625 -4.609375 C 31.695312 -5.441406 33.59375 -8.550781 36.84375 -13.9375 C 42.820312 -23.757812 48.148438 -32.265625 52.828125 -39.453125 C 57.503906 -46.648438 62.367188 -53.101562 67.421875 -58.8125 C 72.484375 -64.53125 76.734375 -67.390625 80.171875 -67.390625 C 81.648438 -67.390625 82.742188 -66.882812 83.453125 -65.875 C 84.160156 -64.875 84.515625 -63.75 84.515625 -62.5 C 84.515625 -61.550781 84.160156 -59.878906 83.453125 -57.484375 C 82.742188 -55.085938 81.53125 -51.226562 79.8125 -45.90625 C 76.851562 -36.726562 74.515625 -28.988281 72.796875 -22.6875 C 71.085938 -16.382812 70.234375 -11.304688 70.234375 -7.453125 C 70.234375 -4.316406 70.894531 -2.007812 72.21875 -0.53125 C 73.550781 0.945312 75.195312 1.6875 77.15625 1.6875 C 79.28125 1.6875 81.023438 0.945312 82.390625 -0.53125 C 83.753906 -2.007812 85.144531 -4.257812 86.5625 -7.28125 C 94.3125 -21.070312 102.671875 -34.519531 111.640625 -47.625 C 120.609375 -60.738281 127.757812 -67.296875 133.09375 -67.296875 C 134.570312 -67.296875 135.664062 -66.789062 136.375 -65.78125 C 137.082031 -64.78125 137.4375 -63.660156 137.4375 -62.421875 C 137.4375 -60.816406 137.019531 -58.800781 136.1875 -56.375 C 135.363281 -53.945312 134.035156 -50.425781 132.203125 -45.8125 C 129.296875 -38.644531 127.039062 -32.425781 125.4375 -27.15625 C 123.84375 -21.894531 123.046875 -16.894531 123.046875 -12.15625 C 123.046875 -7.957031 124.140625 -4.554688 126.328125 -1.953125 C 128.523438 0.648438 131.546875 1.953125 135.390625 1.953125 C 138.941406 1.953125 142.195312 1.109375 145.15625 -0.578125 C 148.113281 -2.265625 150.9375 -4.628906 153.625 -7.671875 C 156.320312 -10.722656 159.445312 -14.820312 163 -19.96875 L 164.953125 -22.640625 C 163.359375 -24.054688 161.675781 -25.503906 159.90625 -26.984375 L 159.015625 -25.21875 C 158.066406 -23.914062 157.382812 -22.9375 156.96875 -22.28125 C 154.425781 -18.726562 152.457031 -16.0625 151.0625 -14.28125 C 149.675781 -12.507812 148.195312 -11.046875 146.625 -9.890625 C 145.050781 -8.742188 143.410156 -8.171875 141.703125 -8.171875 C 139.148438 -8.171875 137.875 -10.09375 137.875 -13.9375 C 137.875 -16.84375 138.421875 -20.054688 139.515625 -23.578125 C 140.617188 -27.097656 142.296875 -31.726562 144.546875 -37.46875 C 147.023438 -43.800781 148.882812 -49.066406 150.125 -53.265625 C 151.375 -57.472656 152 -61.441406 152 -65.171875 C 152 -69.015625 150.976562 -72.28125 148.9375 -74.96875 C 146.894531 -77.664062 143.65625 -79.015625 139.21875 -79.015625 C 133.707031 -79.015625 127.976562 -76.234375 122.03125 -70.671875 C 116.082031 -65.109375 110.738281 -58.878906 106 -51.984375 C 101.269531 -45.085938 96.242188 -37.171875 90.921875 -28.234375 C 89.203125 -25.328125 88.101562 -23.492188 87.625 -22.734375 Z M 86.03125 -23.4375 "/></g></g></g><g fill="#000000" fill-opacity="1"><g transform="translate(1088.334945, 787.499912)"><g><path d="M 94.46875 -25.296875 C 91.03125 -20.742188 87.847656 -16.972656 84.921875 -13.984375 C 81.992188 -10.992188 79.226562 -9.5 76.625 -9.5 C 74.664062 -9.5 73.253906 -10.28125 72.390625 -11.84375 C 71.535156 -13.414062 71.109375 -15.414062 71.109375 -17.84375 C 71.109375 -20.75 71.566406 -24.179688 72.484375 -28.140625 C 73.410156 -32.109375 74.671875 -36.640625 76.265625 -41.734375 L 84.4375 -68.28125 C 84.726562 -69.457031 84.875 -70.222656 84.875 -70.578125 C 84.875 -72.296875 84.148438 -73.742188 82.703125 -74.921875 C 81.253906 -76.109375 79.492188 -76.703125 77.421875 -76.703125 C 76.117188 -76.703125 75.082031 -76.363281 74.3125 -75.6875 C 73.539062 -75.007812 72.945312 -74.046875 72.53125 -72.796875 L 68.984375 -61.171875 C 68.804688 -63.660156 67.929688 -66.296875 66.359375 -69.078125 C 64.796875 -71.859375 62.445312 -74.222656 59.3125 -76.171875 C 56.175781 -78.128906 52.238281 -79.109375 47.5 -79.109375 C 40.039062 -79.109375 33.160156 -76.695312 26.859375 -71.875 C 20.554688 -67.050781 15.550781 -60.742188 11.84375 -52.953125 C 8.144531 -45.171875 6.296875 -37.050781 6.296875 -28.59375 C 6.296875 -21.78125 7.390625 -16.109375 9.578125 -11.578125 C 11.773438 -7.054688 14.660156 -3.710938 18.234375 -1.546875 C 21.816406 0.609375 25.710938 1.6875 29.921875 1.6875 C 43.472656 1.6875 53.921875 -6.65625 61.265625 -23.34375 C 60.492188 -18.082031 60.109375 -14.914062 60.109375 -13.84375 C 60.109375 -9.582031 60.769531 -6.28125 62.09375 -3.9375 C 63.425781 -1.601562 64.878906 -0.0546875 66.453125 0.703125 C 68.023438 1.472656 69.375 1.859375 70.5 1.859375 C 76.0625 1.859375 81.398438 -0.679688 86.515625 -5.765625 C 91.640625 -10.859375 96.453125 -16.75 100.953125 -23.4375 L 96.15625 -27.515625 Z M 65.171875 -51.765625 C 65.171875 -45.546875 63.675781 -39.003906 60.6875 -32.140625 C 57.695312 -25.273438 53.832031 -19.546875 49.09375 -14.953125 C 44.363281 -10.367188 39.539062 -8.078125 34.625 -8.078125 C 30.539062 -8.078125 27.269531 -10.03125 24.8125 -13.9375 C 22.351562 -17.84375 21.125 -23.46875 21.125 -30.8125 C 21.125 -37.96875 22.585938 -44.609375 25.515625 -50.734375 C 28.453125 -56.859375 32.109375 -61.726562 36.484375 -65.34375 C 40.867188 -68.957031 44.984375 -70.765625 48.828125 -70.765625 C 51.785156 -70.765625 54.519531 -69.875 57.03125 -68.09375 C 59.550781 -66.320312 61.535156 -63.96875 62.984375 -61.03125 C 64.441406 -58.101562 65.171875 -55.015625 65.171875 -51.765625 Z M 65.171875 -51.765625 "/></g></g></g><g fill="#000000" fill-opacity="1"><g transform="translate(1184.573066, 787.499912)"><g><path d="M 59.921875 -7.1875 C 57.734375 -7.1875 55.644531 -7.597656 53.65625 -8.421875 C 51.675781 -9.253906 49.296875 -10.53125 46.515625 -12.25 C 43.554688 -14.03125 40.984375 -15.378906 38.796875 -16.296875 C 36.609375 -17.210938 34.242188 -17.671875 31.703125 -17.671875 C 29.984375 -17.671875 28.265625 -17.492188 26.546875 -17.140625 C 24.828125 -16.785156 22.785156 -16.25 20.421875 -15.53125 L 17.484375 -14.734375 C 20.328125 -18.460938 23.421875 -21.941406 26.765625 -25.171875 C 30.109375 -28.398438 33.796875 -31.640625 37.828125 -34.890625 C 45.285156 -40.035156 51.515625 -44.882812 56.515625 -49.4375 C 61.515625 -54 65.613281 -59.269531 68.8125 -65.25 C 69.988281 -67.5625 70.914062 -69.675781 71.59375 -71.59375 C 72.28125 -73.519531 72.625 -75.488281 72.625 -77.5 C 72.625 -78.6875 71.882812 -79.28125 70.40625 -79.28125 C 69.988281 -79.28125 69.539062 -79.25 69.0625 -79.1875 C 68.59375 -79.132812 68.125 -79.109375 67.65625 -79.109375 C 67.300781 -79.109375 66.945312 -78.828125 66.59375 -78.265625 C 66.238281 -77.703125 65.789062 -76.828125 65.25 -75.640625 C 64.25 -73.273438 63.1875 -71.378906 62.0625 -69.953125 C 60.9375 -68.535156 59.484375 -67.828125 57.703125 -67.828125 C 56.222656 -67.828125 54.519531 -68.253906 52.59375 -69.109375 C 50.675781 -69.972656 48.117188 -71.289062 44.921875 -73.0625 C 41.191406 -75.082031 38.15625 -76.59375 35.8125 -77.59375 C 33.476562 -78.601562 31.304688 -79.109375 29.296875 -79.109375 C 26.097656 -79.109375 22.957031 -78.5 19.875 -77.28125 C 16.800781 -76.070312 14.285156 -74.34375 12.328125 -72.09375 C 10.378906 -69.84375 9.40625 -67.238281 9.40625 -64.28125 C 9.40625 -61.144531 10.335938 -58.476562 12.203125 -56.28125 C 14.066406 -54.09375 16.363281 -53 19.09375 -53 C 20.75 -53 22.125 -53.441406 23.21875 -54.328125 C 24.3125 -55.222656 24.859375 -56.378906 24.859375 -57.796875 C 24.859375 -58.679688 24.648438 -59.492188 24.234375 -60.234375 C 23.816406 -60.972656 23.164062 -61.90625 22.28125 -63.03125 C 21.457031 -64.21875 20.863281 -65.117188 20.5 -65.734375 C 20.144531 -66.359375 19.96875 -67.023438 19.96875 -67.734375 C 19.96875 -69.628906 21.65625 -70.578125 25.03125 -70.578125 C 26.507812 -70.578125 28.046875 -70.101562 29.640625 -69.15625 C 31.242188 -68.207031 33.257812 -66.789062 35.6875 -64.90625 C 38.46875 -62.769531 40.789062 -61.171875 42.65625 -60.109375 C 44.519531 -59.046875 46.429688 -58.515625 48.390625 -58.515625 C 50.160156 -58.515625 51.710938 -58.660156 53.046875 -58.953125 C 54.378906 -59.242188 55.367188 -59.535156 56.015625 -59.828125 C 56.671875 -60.128906 57.085938 -60.34375 57.265625 -60.46875 C 47.734375 -51.582031 39.800781 -45.097656 33.46875 -41.015625 C 25.832031 -36.285156 19.171875 -30.828125 13.484375 -24.640625 C 7.804688 -18.453125 4.96875 -11.867188 4.96875 -4.890625 C 4.96875 -3.398438 5.054688 -2.140625 5.234375 -1.109375 C 5.410156 -0.078125 5.828125 0.882812 6.484375 1.78125 L 10.5625 1.78125 C 10.800781 -0.644531 11.554688 -3.039062 12.828125 -5.40625 C 14.097656 -7.78125 16.273438 -8.96875 19.359375 -8.96875 C 20.484375 -8.96875 21.695312 -8.6875 23 -8.125 C 24.300781 -7.5625 26.132812 -6.660156 28.5 -5.421875 C 32.519531 -3.222656 36.273438 -1.488281 39.765625 -0.21875 C 43.265625 1.050781 47.234375 1.6875 51.671875 1.6875 C 55.640625 1.6875 59.351562 1.125 62.8125 0 C 66.28125 -1.125 69.09375 -2.898438 71.25 -5.328125 C 73.40625 -7.753906 74.484375 -10.832031 74.484375 -14.5625 C 74.484375 -18.582031 73.535156 -21.554688 71.640625 -23.484375 C 69.753906 -25.410156 67.535156 -26.375 64.984375 -26.375 C 63.035156 -26.375 61.421875 -25.867188 60.140625 -24.859375 C 58.867188 -23.847656 58.234375 -22.546875 58.234375 -20.953125 C 58.234375 -19.117188 58.738281 -17.65625 59.75 -16.5625 C 60.757812 -15.46875 62.148438 -14.382812 63.921875 -13.3125 C 64.929688 -12.664062 65.671875 -12.148438 66.140625 -11.765625 C 66.617188 -11.378906 66.859375 -10.945312 66.859375 -10.46875 C 66.972656 -9.226562 66.523438 -8.367188 65.515625 -7.890625 C 64.515625 -7.421875 62.648438 -7.1875 59.921875 -7.1875 Z M 59.921875 -7.1875 "/></g></g></g><g fill="#036335" fill-opacity="1"><g transform="translate(326.213237, 878.524176)"><g><path d="M 13.296875 0.375 C 11.910156 0.375 10.566406 0.1875 9.265625 -0.1875 C 7.960938 -0.570312 6.769531 -1.140625 5.6875 -1.890625 C 4.613281 -2.648438 3.707031 -3.597656 2.96875 -4.734375 C 2.226562 -5.867188 1.738281 -7.195312 1.5 -8.71875 L 6.03125 -9.9375 C 6.175781 -8.53125 6.597656 -7.375 7.296875 -6.46875 C 7.992188 -5.5625 8.875 -4.890625 9.9375 -4.453125 C 11 -4.015625 12.132812 -3.796875 13.34375 -3.796875 C 15.195312 -3.796875 16.664062 -4.234375 17.75 -5.109375 C 18.832031 -5.992188 19.375 -7.226562 19.375 -8.8125 C 19.375 -9.757812 19.148438 -10.570312 18.703125 -11.25 C 18.253906 -11.9375 17.65625 -12.53125 16.90625 -13.03125 C 16.164062 -13.53125 15.328125 -13.984375 14.390625 -14.390625 C 13.460938 -14.804688 12.503906 -15.21875 11.515625 -15.625 C 10.523438 -16.03125 9.5625 -16.484375 8.625 -16.984375 C 7.6875 -17.484375 6.84375 -18.0625 6.09375 -18.71875 C 5.351562 -19.382812 4.757812 -20.179688 4.3125 -21.109375 C 3.875 -22.035156 3.65625 -23.132812 3.65625 -24.40625 C 3.65625 -25.738281 3.90625 -26.929688 4.40625 -27.984375 C 4.90625 -29.046875 5.585938 -29.945312 6.453125 -30.6875 C 7.316406 -31.4375 8.316406 -32.003906 9.453125 -32.390625 C 10.585938 -32.785156 11.800781 -32.984375 13.09375 -32.984375 C 15.050781 -32.984375 16.847656 -32.550781 18.484375 -31.6875 C 20.117188 -30.820312 21.460938 -29.46875 22.515625 -27.625 L 18.796875 -25.25 C 18.179688 -26.445312 17.351562 -27.347656 16.3125 -27.953125 C 15.28125 -28.566406 14.164062 -28.875 12.96875 -28.875 C 12.125 -28.875 11.347656 -28.703125 10.640625 -28.359375 C 9.941406 -28.023438 9.375 -27.546875 8.9375 -26.921875 C 8.5 -26.304688 8.28125 -25.566406 8.28125 -24.703125 C 8.28125 -23.859375 8.5 -23.132812 8.9375 -22.53125 C 9.375 -21.925781 9.96875 -21.394531 10.71875 -20.9375 C 11.46875 -20.476562 12.304688 -20.046875 13.234375 -19.640625 C 14.160156 -19.242188 15.125 -18.832031 16.125 -18.40625 C 17.125 -17.988281 18.085938 -17.519531 19.015625 -17 C 19.941406 -16.476562 20.78125 -15.863281 21.53125 -15.15625 C 22.28125 -14.445312 22.875 -13.609375 23.3125 -12.640625 C 23.75 -11.679688 23.96875 -10.535156 23.96875 -9.203125 C 23.96875 -7.734375 23.691406 -6.40625 23.140625 -5.21875 C 22.597656 -4.039062 21.84375 -3.035156 20.875 -2.203125 C 19.90625 -1.378906 18.773438 -0.742188 17.484375 -0.296875 C 16.191406 0.148438 14.796875 0.375 13.296875 0.375 Z M 13.296875 0.375 "/></g></g></g><g fill="#036335" fill-opacity="1"><g transform="translate(352.987604, 878.524176)"><g><path d="M 12.875 0.453125 C 11.175781 0.453125 9.632812 0.140625 8.25 -0.484375 C 6.875 -1.109375 5.6875 -1.976562 4.6875 -3.09375 C 3.695312 -4.207031 2.929688 -5.488281 2.390625 -6.9375 C 1.859375 -8.382812 1.59375 -9.921875 1.59375 -11.546875 C 1.59375 -13.171875 1.859375 -14.703125 2.390625 -16.140625 C 2.929688 -17.585938 3.695312 -18.859375 4.6875 -19.953125 C 5.6875 -21.046875 6.875 -21.90625 8.25 -22.53125 C 9.632812 -23.15625 11.175781 -23.46875 12.875 -23.46875 C 14.5625 -23.46875 16.097656 -23.15625 17.484375 -22.53125 C 18.878906 -21.90625 20.078125 -21.046875 21.078125 -19.953125 C 22.085938 -18.859375 22.863281 -17.585938 23.40625 -16.140625 C 23.945312 -14.703125 24.21875 -13.171875 24.21875 -11.546875 C 24.21875 -9.921875 23.945312 -8.382812 23.40625 -6.9375 C 22.863281 -5.488281 22.085938 -4.207031 21.078125 -3.09375 C 20.078125 -1.976562 18.878906 -1.109375 17.484375 -0.484375 C 16.097656 0.140625 14.5625 0.453125 12.875 0.453125 Z M 12.90625 -3.3125 C 14.082031 -3.3125 15.097656 -3.539062 15.953125 -4 C 16.804688 -4.457031 17.5 -5.078125 18.03125 -5.859375 C 18.570312 -6.640625 18.972656 -7.519531 19.234375 -8.5 C 19.492188 -9.488281 19.625 -10.503906 19.625 -11.546875 C 19.625 -12.609375 19.492188 -13.617188 19.234375 -14.578125 C 18.972656 -15.546875 18.570312 -16.410156 18.03125 -17.171875 C 17.5 -17.941406 16.804688 -18.550781 15.953125 -19 C 15.097656 -19.445312 14.082031 -19.671875 12.90625 -19.671875 C 11.738281 -19.671875 10.726562 -19.445312 9.875 -19 C 9.03125 -18.550781 8.332031 -17.941406 7.78125 -17.171875 C 7.238281 -16.410156 6.835938 -15.546875 6.578125 -14.578125 C 6.316406 -13.617188 6.1875 -12.609375 6.1875 -11.546875 C 6.1875 -10.484375 6.316406 -9.460938 6.578125 -8.484375 C 6.835938 -7.503906 7.238281 -6.625 7.78125 -5.84375 C 8.332031 -5.0625 9.03125 -4.441406 9.875 -3.984375 C 10.726562 -3.535156 11.738281 -3.3125 12.90625 -3.3125 Z M 12.90625 -3.3125 "/></g></g></g><g fill="#036335" fill-opacity="1"><g transform="translate(379.76197, 878.524176)"><g><path d="M 10.265625 0.453125 C 8.742188 0.453125 7.359375 0.175781 6.109375 -0.375 C 4.867188 -0.925781 3.828125 -1.660156 2.984375 -2.578125 C 2.140625 -3.492188 1.535156 -4.5 1.171875 -5.59375 L 4.8125 -7.296875 C 5.050781 -6.597656 5.390625 -5.9375 5.828125 -5.3125 C 6.265625 -4.695312 6.835938 -4.191406 7.546875 -3.796875 C 8.253906 -3.410156 9.117188 -3.21875 10.140625 -3.21875 C 11.441406 -3.21875 12.457031 -3.53125 13.1875 -4.15625 C 13.914062 -4.789062 14.28125 -5.578125 14.28125 -6.515625 C 14.28125 -7.148438 14.109375 -7.675781 13.765625 -8.09375 C 13.429688 -8.507812 12.984375 -8.859375 12.421875 -9.140625 C 11.867188 -9.421875 11.238281 -9.671875 10.53125 -9.890625 C 9.832031 -10.109375 9.101562 -10.328125 8.34375 -10.546875 C 7.582031 -10.765625 6.847656 -11.023438 6.140625 -11.328125 C 5.429688 -11.640625 4.796875 -12.023438 4.234375 -12.484375 C 3.679688 -12.953125 3.234375 -13.523438 2.890625 -14.203125 C 2.554688 -14.890625 2.390625 -15.726562 2.390625 -16.71875 C 2.390625 -17.84375 2.597656 -18.820312 3.015625 -19.65625 C 3.441406 -20.488281 4.019531 -21.1875 4.75 -21.75 C 5.488281 -22.320312 6.328125 -22.75 7.265625 -23.03125 C 8.210938 -23.320312 9.210938 -23.46875 10.265625 -23.46875 C 12.128906 -23.46875 13.75 -23.03125 15.125 -22.15625 C 16.5 -21.289062 17.578125 -20.128906 18.359375 -18.671875 L 14.96875 -16.8125 C 14.53125 -17.675781 13.921875 -18.410156 13.140625 -19.015625 C 12.359375 -19.617188 11.34375 -19.921875 10.09375 -19.921875 C 9.019531 -19.921875 8.164062 -19.671875 7.53125 -19.171875 C 6.894531 -18.671875 6.578125 -18.046875 6.578125 -17.296875 C 6.578125 -16.648438 6.796875 -16.128906 7.234375 -15.734375 C 7.671875 -15.347656 8.242188 -15.015625 8.953125 -14.734375 C 9.671875 -14.460938 10.457031 -14.203125 11.3125 -13.953125 C 12.175781 -13.710938 13.035156 -13.429688 13.890625 -13.109375 C 14.753906 -12.785156 15.539062 -12.367188 16.25 -11.859375 C 16.96875 -11.347656 17.539062 -10.6875 17.96875 -9.875 C 18.40625 -9.070312 18.625 -8.070312 18.625 -6.875 C 18.625 -5.613281 18.382812 -4.523438 17.90625 -3.609375 C 17.4375 -2.691406 16.800781 -1.925781 16 -1.3125 C 15.195312 -0.707031 14.300781 -0.265625 13.3125 0.015625 C 12.320312 0.304688 11.304688 0.453125 10.265625 0.453125 Z M 10.265625 0.453125 "/></g></g></g><g fill="#036335" fill-opacity="1"><g transform="translate(401.13072, 878.524176)"><g><path d="M 5.203125 9.890625 L 9.265625 -0.34375 L 0.375 -22.984375 L 5.265625 -22.984375 L 11.578125 -5.515625 L 17.796875 -22.984375 L 22.6875 -22.984375 L 9.984375 9.890625 Z M 5.203125 9.890625 "/></g></g></g><g fill="#036335" fill-opacity="1"><g transform="translate(425.121769, 878.524176)"><g><path d="M 9.40625 0.453125 C 7.90625 0.453125 6.5625 0.171875 5.375 -0.390625 C 4.1875 -0.953125 3.25 -1.765625 2.5625 -2.828125 C 1.882812 -3.898438 1.546875 -5.195312 1.546875 -6.71875 C 1.546875 -8.3125 1.9375 -9.597656 2.71875 -10.578125 C 3.507812 -11.554688 4.628906 -12.269531 6.078125 -12.71875 C 7.535156 -13.175781 9.242188 -13.40625 11.203125 -13.40625 L 16.796875 -13.40625 C 16.796875 -14.632812 16.617188 -15.707031 16.265625 -16.625 C 15.910156 -17.550781 15.359375 -18.273438 14.609375 -18.796875 C 13.859375 -19.316406 12.875 -19.578125 11.65625 -19.578125 C 10.675781 -19.578125 9.804688 -19.410156 9.046875 -19.078125 C 8.285156 -18.753906 7.632812 -18.332031 7.09375 -17.8125 C 6.550781 -17.300781 6.101562 -16.769531 5.75 -16.21875 L 2.421875 -18.703125 C 3.472656 -20.171875 4.738281 -21.332031 6.21875 -22.1875 C 7.695312 -23.039062 9.472656 -23.46875 11.546875 -23.46875 C 13.566406 -23.46875 15.28125 -23.066406 16.6875 -22.265625 C 18.09375 -21.472656 19.160156 -20.367188 19.890625 -18.953125 C 20.617188 -17.546875 20.984375 -15.90625 20.984375 -14.03125 L 20.984375 0 L 17.28125 0 L 17.046875 -3.890625 C 16.140625 -2.304688 15.015625 -1.1875 13.671875 -0.53125 C 12.328125 0.125 10.90625 0.453125 9.40625 0.453125 Z M 9.984375 -3.3125 C 10.984375 -3.3125 11.894531 -3.503906 12.71875 -3.890625 C 13.550781 -4.285156 14.269531 -4.8125 14.875 -5.46875 C 15.476562 -6.132812 15.941406 -6.867188 16.265625 -7.671875 C 16.597656 -8.472656 16.773438 -9.289062 16.796875 -10.125 L 11.53125 -10.125 C 9.71875 -10.125 8.363281 -9.816406 7.46875 -9.203125 C 6.570312 -8.597656 6.125 -7.722656 6.125 -6.578125 C 6.125 -5.503906 6.484375 -4.691406 7.203125 -4.140625 C 7.921875 -3.585938 8.847656 -3.3125 9.984375 -3.3125 Z M 9.984375 -3.3125 "/></g></g></g><g fill="#036335" fill-opacity="1"><g transform="translate(450.032922, 878.524176)"><g><path d="M 7.75 0.453125 C 6.21875 0.453125 5.128906 0.03125 4.484375 -0.8125 C 3.835938 -1.664062 3.515625 -2.925781 3.515625 -4.59375 L 3.515625 -32.5 L 7.984375 -32.5 L 7.984375 -4.90625 C 7.984375 -4.78125 8.023438 -4.601562 8.109375 -4.375 C 8.191406 -4.15625 8.335938 -3.953125 8.546875 -3.765625 C 8.765625 -3.585938 9.066406 -3.5 9.453125 -3.5 C 9.742188 -3.5 10.066406 -3.515625 10.421875 -3.546875 C 10.773438 -3.578125 11.085938 -3.625 11.359375 -3.6875 L 11.359375 0 C 10.890625 0.101562 10.328125 0.203125 9.671875 0.296875 C 9.015625 0.398438 8.375 0.453125 7.75 0.453125 Z M 7.75 0.453125 "/></g></g></g><g fill="#036335" fill-opacity="1"><g transform="translate(463.48877, 878.524176)"><g/></g></g><g fill="#036335" fill-opacity="1"><g transform="translate(476.346549, 878.524176)"><g><path d="M 4.546875 0 L 4.546875 -32.5 L 14.609375 -32.5 C 15.878906 -32.5 17.128906 -32.347656 18.359375 -32.046875 C 19.597656 -31.753906 20.71875 -31.28125 21.71875 -30.625 C 22.726562 -29.976562 23.53125 -29.117188 24.125 -28.046875 C 24.726562 -26.984375 25.03125 -25.675781 25.03125 -24.125 C 25.03125 -23.019531 24.847656 -22.023438 24.484375 -21.140625 C 24.128906 -20.265625 23.65625 -19.503906 23.0625 -18.859375 C 22.46875 -18.210938 21.8125 -17.6875 21.09375 -17.28125 C 22.15625 -16.832031 23.101562 -16.210938 23.9375 -15.421875 C 24.769531 -14.628906 25.421875 -13.691406 25.890625 -12.609375 C 26.367188 -11.535156 26.609375 -10.335938 26.609375 -9.015625 C 26.609375 -7.453125 26.316406 -6.101562 25.734375 -4.96875 C 25.148438 -3.832031 24.363281 -2.894531 23.375 -2.15625 C 22.394531 -1.425781 21.28125 -0.882812 20.03125 -0.53125 C 18.789062 -0.175781 17.503906 0 16.171875 0 Z M 9.203125 -18.765625 L 14.875 -18.765625 C 15.875 -18.765625 16.800781 -18.921875 17.65625 -19.234375 C 18.507812 -19.554688 19.195312 -20.082031 19.71875 -20.8125 C 20.238281 -21.539062 20.5 -22.507812 20.5 -23.71875 C 20.5 -24.863281 20.234375 -25.769531 19.703125 -26.4375 C 19.171875 -27.101562 18.46875 -27.578125 17.59375 -27.859375 C 16.71875 -28.148438 15.742188 -28.296875 14.671875 -28.296875 L 9.203125 -28.296875 Z M 9.203125 -4.390625 L 16.265625 -4.390625 C 17.347656 -4.390625 18.320312 -4.550781 19.1875 -4.875 C 20.0625 -5.195312 20.75 -5.722656 21.25 -6.453125 C 21.757812 -7.191406 22.015625 -8.1875 22.015625 -9.4375 C 22.015625 -10.625 21.753906 -11.601562 21.234375 -12.375 C 20.710938 -13.15625 20.015625 -13.734375 19.140625 -14.109375 C 18.265625 -14.484375 17.28125 -14.671875 16.1875 -14.671875 L 9.203125 -14.671875 Z M 9.203125 -4.390625 "/></g></g></g><g fill="#036335" fill-opacity="1"><g transform="translate(506.203266, 878.524176)"><g><path d="M 3.359375 -27.71875 L 3.359375 -32.5 L 8.234375 -32.5 L 8.234375 -27.71875 Z M 3.640625 0 L 3.640625 -22.984375 L 8.078125 -22.984375 L 8.078125 0 Z M 3.640625 0 "/></g></g></g><g fill="#036335" fill-opacity="1"><g transform="translate(518.83102, 878.524176)"><g><path d="M 7.75 0.453125 C 6.21875 0.453125 5.128906 0.03125 4.484375 -0.8125 C 3.835938 -1.664062 3.515625 -2.925781 3.515625 -4.59375 L 3.515625 -32.5 L 7.984375 -32.5 L 7.984375 -4.90625 C 7.984375 -4.78125 8.023438 -4.601562 8.109375 -4.375 C 8.191406 -4.15625 8.335938 -3.953125 8.546875 -3.765625 C 8.765625 -3.585938 9.066406 -3.5 9.453125 -3.5 C 9.742188 -3.5 10.066406 -3.515625 10.421875 -3.546875 C 10.773438 -3.578125 11.085938 -3.625 11.359375 -3.6875 L 11.359375 0 C 10.890625 0.101562 10.328125 0.203125 9.671875 0.296875 C 9.015625 0.398438 8.375 0.453125 7.75 0.453125 Z M 7.75 0.453125 "/></g></g></g><g fill="#036335" fill-opacity="1"><g transform="translate(532.286868, 878.524176)"><g><path d="M 12.921875 -3.265625 C 13.828125 -3.140625 14.722656 -2.992188 15.609375 -2.828125 C 16.492188 -2.660156 17.328125 -2.4375 18.109375 -2.15625 C 18.898438 -1.882812 19.597656 -1.515625 20.203125 -1.046875 C 20.804688 -0.578125 21.28125 0.015625 21.625 0.734375 C 21.976562 1.453125 22.15625 2.332031 22.15625 3.375 C 22.15625 4.625 21.898438 5.703125 21.390625 6.609375 C 20.890625 7.523438 20.191406 8.285156 19.296875 8.890625 C 18.410156 9.492188 17.382812 9.945312 16.21875 10.25 C 15.050781 10.550781 13.816406 10.703125 12.515625 10.703125 C 10.398438 10.703125 8.570312 10.351562 7.03125 9.65625 C 5.488281 8.957031 4.296875 8 3.453125 6.78125 C 2.617188 5.570312 2.203125 4.21875 2.203125 2.71875 C 2.203125 2.5 2.207031 2.320312 2.21875 2.1875 C 2.238281 2.050781 2.257812 1.910156 2.28125 1.765625 L 5.171875 -1.015625 C 4.410156 -1.453125 3.78125 -2.039062 3.28125 -2.78125 C 2.789062 -3.53125 2.546875 -4.484375 2.546875 -5.640625 C 2.546875 -6.492188 2.695312 -7.269531 3 -7.96875 C 3.3125 -8.664062 3.800781 -9.300781 4.46875 -9.875 C 3.851562 -10.570312 3.375 -11.367188 3.03125 -12.265625 C 2.695312 -13.171875 2.53125 -14.132812 2.53125 -15.15625 C 2.53125 -16.382812 2.765625 -17.503906 3.234375 -18.515625 C 3.703125 -19.523438 4.347656 -20.390625 5.171875 -21.109375 C 6.003906 -21.835938 6.957031 -22.394531 8.03125 -22.78125 C 9.113281 -23.175781 10.28125 -23.375 11.53125 -23.375 C 12.632812 -23.375 13.671875 -23.21875 14.640625 -22.90625 C 15.617188 -22.601562 16.488281 -22.160156 17.25 -21.578125 L 20.703125 -24.640625 L 23.125 -21.640625 L 19.578125 -18.84375 C 20.191406 -17.6875 20.5 -16.394531 20.5 -14.96875 C 20.5 -13.71875 20.265625 -12.59375 19.796875 -11.59375 C 19.335938 -10.59375 18.703125 -9.738281 17.890625 -9.03125 C 17.078125 -8.332031 16.132812 -7.796875 15.0625 -7.421875 C 13.988281 -7.046875 12.835938 -6.859375 11.609375 -6.859375 C 10.035156 -6.859375 8.585938 -7.164062 7.265625 -7.78125 C 6.703125 -7.394531 6.421875 -6.894531 6.421875 -6.28125 C 6.421875 -5.5625 6.707031 -5.015625 7.28125 -4.640625 C 7.851562 -4.265625 8.632812 -3.984375 9.625 -3.796875 C 10.613281 -3.609375 11.710938 -3.429688 12.921875 -3.265625 Z M 11.59375 -19.890625 C 10.65625 -19.890625 9.847656 -19.675781 9.171875 -19.25 C 8.503906 -18.820312 7.992188 -18.25 7.640625 -17.53125 C 7.285156 -16.820312 7.109375 -16.03125 7.109375 -15.15625 C 7.109375 -13.78125 7.503906 -12.660156 8.296875 -11.796875 C 9.085938 -10.941406 10.1875 -10.515625 11.59375 -10.515625 C 13 -10.515625 14.09375 -10.941406 14.875 -11.796875 C 15.664062 -12.660156 16.0625 -13.78125 16.0625 -15.15625 C 16.0625 -16.050781 15.882812 -16.851562 15.53125 -17.5625 C 15.175781 -18.269531 14.664062 -18.832031 14 -19.25 C 13.332031 -19.675781 12.53125 -19.890625 11.59375 -19.890625 Z M 12.671875 7.015625 C 13.671875 7.015625 14.570312 6.894531 15.375 6.65625 C 16.175781 6.414062 16.816406 6.054688 17.296875 5.578125 C 17.785156 5.109375 18.03125 4.519531 18.03125 3.8125 C 18.03125 3.226562 17.863281 2.757812 17.53125 2.40625 C 17.207031 2.0625 16.753906 1.789062 16.171875 1.59375 C 15.585938 1.40625 14.894531 1.25 14.09375 1.125 C 13.300781 1 12.429688 0.867188 11.484375 0.734375 C 10.929688 0.660156 10.363281 0.570312 9.78125 0.46875 C 9.207031 0.375 8.628906 0.253906 8.046875 0.109375 L 6.09375 2.8125 C 6.15625 3.601562 6.457031 4.316406 7 4.953125 C 7.550781 5.585938 8.304688 6.085938 9.265625 6.453125 C 10.234375 6.828125 11.367188 7.015625 12.671875 7.015625 Z M 12.671875 7.015625 "/></g></g></g><g fill="#036335" fill-opacity="1"><g transform="translate(557.060005, 878.524176)"><g><path d="M 3.359375 -27.71875 L 3.359375 -32.5 L 8.234375 -32.5 L 8.234375 -27.71875 Z M 3.640625 0 L 3.640625 -22.984375 L 8.078125 -22.984375 L 8.078125 0 Z M 3.640625 0 "/></g></g></g><g fill="#036335" fill-opacity="1"><g transform="translate(569.687759, 878.524176)"><g><path d="M 7.75 0.453125 C 6.21875 0.453125 5.128906 0.03125 4.484375 -0.8125 C 3.835938 -1.664062 3.515625 -2.925781 3.515625 -4.59375 L 3.515625 -32.5 L 7.984375 -32.5 L 7.984375 -4.90625 C 7.984375 -4.78125 8.023438 -4.601562 8.109375 -4.375 C 8.191406 -4.15625 8.335938 -3.953125 8.546875 -3.765625 C 8.765625 -3.585938 9.066406 -3.5 9.453125 -3.5 C 9.742188 -3.5 10.066406 -3.515625 10.421875 -3.546875 C 10.773438 -3.578125 11.085938 -3.625 11.359375 -3.6875 L 11.359375 0 C 10.890625 0.101562 10.328125 0.203125 9.671875 0.296875 C 9.015625 0.398438 8.375 0.453125 7.75 0.453125 Z M 7.75 0.453125 "/></g></g></g><g fill="#036335" fill-opacity="1"><g transform="translate(583.143607, 878.524176)"><g><path d="M 12.671875 0.390625 C 10.816406 0.390625 9.195312 0.0703125 7.8125 -0.5625 C 6.4375 -1.195312 5.296875 -2.066406 4.390625 -3.171875 C 3.484375 -4.273438 2.804688 -5.53125 2.359375 -6.9375 C 1.921875 -8.351562 1.703125 -9.835938 1.703125 -11.390625 C 1.703125 -12.898438 1.914062 -14.367188 2.34375 -15.796875 C 2.769531 -17.222656 3.421875 -18.507812 4.296875 -19.65625 C 5.171875 -20.800781 6.269531 -21.707031 7.59375 -22.375 C 8.925781 -23.039062 10.488281 -23.375 12.28125 -23.375 C 13.832031 -23.375 15.175781 -23.148438 16.3125 -22.703125 C 17.457031 -22.253906 18.421875 -21.644531 19.203125 -20.875 C 19.984375 -20.101562 20.613281 -19.222656 21.09375 -18.234375 C 21.570312 -17.253906 21.914062 -16.226562 22.125 -15.15625 C 22.34375 -14.082031 22.453125 -13.023438 22.453125 -11.984375 C 22.453125 -11.597656 22.4375 -11.222656 22.40625 -10.859375 C 22.375 -10.492188 22.34375 -10.21875 22.3125 -10.03125 L 6.421875 -10.03125 C 6.492188 -8.832031 6.765625 -7.742188 7.234375 -6.765625 C 7.703125 -5.796875 8.382812 -5.023438 9.28125 -4.453125 C 10.175781 -3.878906 11.304688 -3.59375 12.671875 -3.59375 C 13.859375 -3.59375 14.941406 -3.765625 15.921875 -4.109375 C 16.910156 -4.460938 17.828125 -5.109375 18.671875 -6.046875 L 21.765625 -3.453125 C 20.503906 -2.128906 19.140625 -1.15625 17.671875 -0.53125 C 16.210938 0.0820312 14.546875 0.390625 12.671875 0.390625 Z M 6.421875 -13.40625 L 18.125 -13.40625 C 18.0625 -14.570312 17.8125 -15.625 17.375 -16.5625 C 16.9375 -17.507812 16.300781 -18.265625 15.46875 -18.828125 C 14.632812 -19.390625 13.566406 -19.671875 12.265625 -19.671875 C 11.003906 -19.671875 9.960938 -19.382812 9.140625 -18.8125 C 8.316406 -18.25 7.679688 -17.488281 7.234375 -16.53125 C 6.796875 -15.582031 6.523438 -14.539062 6.421875 -13.40625 Z M 6.421875 -13.40625 "/></g></g></g><g fill="#036335" fill-opacity="1"><g transform="translate(608.261784, 878.524176)"><g><path d="M 3.640625 0 L 3.640625 -22.984375 L 8 -22.984375 L 8 -19 C 8.375 -19.9375 8.894531 -20.738281 9.5625 -21.40625 C 10.226562 -22.070312 10.988281 -22.582031 11.84375 -22.9375 C 12.707031 -23.289062 13.585938 -23.46875 14.484375 -23.46875 C 15.273438 -23.46875 16.007812 -23.34375 16.6875 -23.09375 C 17.375 -22.851562 17.953125 -22.507812 18.421875 -22.0625 L 16.46875 -18.3125 C 15.71875 -18.875 14.828125 -19.15625 13.796875 -19.15625 C 12.691406 -19.15625 11.695312 -18.84375 10.8125 -18.21875 C 9.9375 -17.59375 9.238281 -16.648438 8.71875 -15.390625 C 8.207031 -14.128906 7.953125 -12.550781 7.953125 -10.65625 L 7.953125 0 Z M 3.640625 0 "/></g></g></g><g fill="#036335" fill-opacity="1"><g transform="translate(627.721316, 878.524176)"><g/></g></g><g fill="#036335" fill-opacity="1"><g transform="translate(640.579095, 878.524176)"><g><path d="M 29.828125 -1.21875 L 26.78125 1.46875 L 22.40625 -3.609375 C 21.132812 -2.335938 19.648438 -1.332031 17.953125 -0.59375 C 16.253906 0.132812 14.390625 0.5 12.359375 0.5 C 10.972656 0.5 9.675781 0.332031 8.46875 0 C 7.269531 -0.320312 6.21875 -0.804688 5.3125 -1.453125 C 4.40625 -2.109375 3.695312 -2.921875 3.1875 -3.890625 C 2.675781 -4.859375 2.421875 -5.976562 2.421875 -7.25 C 2.421875 -8.5 2.632812 -9.625 3.0625 -10.625 C 3.5 -11.632812 4.085938 -12.550781 4.828125 -13.375 C 5.566406 -14.195312 6.398438 -14.953125 7.328125 -15.640625 C 8.253906 -16.328125 9.207031 -16.972656 10.1875 -17.578125 C 9.800781 -18.015625 9.367188 -18.53125 8.890625 -19.125 C 8.421875 -19.71875 7.972656 -20.359375 7.546875 -21.046875 C 7.128906 -21.734375 6.78125 -22.457031 6.5 -23.21875 C 6.226562 -23.976562 6.09375 -24.757812 6.09375 -25.5625 C 6.09375 -26.707031 6.328125 -27.734375 6.796875 -28.640625 C 7.265625 -29.546875 7.894531 -30.316406 8.6875 -30.953125 C 9.476562 -31.585938 10.375 -32.066406 11.375 -32.390625 C 12.375 -32.722656 13.410156 -32.890625 14.484375 -32.890625 C 15.578125 -32.890625 16.601562 -32.707031 17.5625 -32.34375 C 18.519531 -31.976562 19.363281 -31.460938 20.09375 -30.796875 C 20.820312 -30.140625 21.390625 -29.363281 21.796875 -28.46875 C 22.203125 -27.582031 22.40625 -26.617188 22.40625 -25.578125 C 22.40625 -24.253906 22.117188 -23.070312 21.546875 -22.03125 C 20.984375 -20.988281 20.226562 -20.046875 19.28125 -19.203125 C 18.34375 -18.359375 17.320312 -17.570312 16.21875 -16.84375 L 21.984375 -10.21875 C 22.335938 -11.070312 22.617188 -11.984375 22.828125 -12.953125 C 23.035156 -13.929688 23.171875 -14.9375 23.234375 -15.96875 L 27.421875 -15.5 C 27.316406 -13.925781 27.046875 -12.410156 26.609375 -10.953125 C 26.179688 -9.492188 25.609375 -8.132812 24.890625 -6.875 Z M 10.234375 -25.484375 C 10.234375 -24.859375 10.40625 -24.1875 10.75 -23.46875 C 11.09375 -22.757812 11.519531 -22.0625 12.03125 -21.375 C 12.539062 -20.695312 13.023438 -20.085938 13.484375 -19.546875 C 14.410156 -20.128906 15.25 -20.722656 16 -21.328125 C 16.757812 -21.941406 17.363281 -22.585938 17.8125 -23.265625 C 18.269531 -23.953125 18.5 -24.707031 18.5 -25.53125 C 18.5 -26.238281 18.328125 -26.878906 17.984375 -27.453125 C 17.648438 -28.023438 17.179688 -28.476562 16.578125 -28.8125 C 15.984375 -29.15625 15.300781 -29.328125 14.53125 -29.328125 C 13.8125 -29.328125 13.125 -29.179688 12.46875 -28.890625 C 11.8125 -28.597656 11.273438 -28.164062 10.859375 -27.59375 C 10.441406 -27.03125 10.234375 -26.328125 10.234375 -25.484375 Z M 12.3125 -3.359375 C 13.914062 -3.359375 15.34375 -3.648438 16.59375 -4.234375 C 17.84375 -4.816406 18.914062 -5.613281 19.8125 -6.625 L 12.859375 -14.703125 C 11.734375 -13.992188 10.691406 -13.265625 9.734375 -12.515625 C 8.773438 -11.773438 8.003906 -10.972656 7.421875 -10.109375 C 6.847656 -9.253906 6.5625 -8.289062 6.5625 -7.21875 C 6.5625 -6.3125 6.820312 -5.570312 7.34375 -5 C 7.863281 -4.4375 8.5625 -4.019531 9.4375 -3.75 C 10.3125 -3.488281 11.269531 -3.359375 12.3125 -3.359375 Z M 12.3125 -3.359375 "/></g></g></g><g fill="#036335" fill-opacity="1"><g transform="translate(673.242132, 878.524176)"><g/></g></g><g fill="#036335" fill-opacity="1"><g transform="translate(686.099911, 878.524176)"><g><path d="M 11.34375 -37.21875 L 11.34375 -42 L 15.625 -42 L 15.625 -37.21875 Z M 19.28125 -37.21875 L 19.28125 -42 L 23.5625 -42 L 23.5625 -37.21875 Z M 17.484375 0.453125 C 15.429688 0.453125 13.585938 0.164062 11.953125 -0.40625 C 10.328125 -0.988281 8.914062 -1.800781 7.71875 -2.84375 C 6.53125 -3.894531 5.539062 -5.117188 4.75 -6.515625 C 3.957031 -7.921875 3.363281 -9.445312 2.96875 -11.09375 C 2.582031 -12.75 2.390625 -14.472656 2.390625 -16.265625 C 2.390625 -18.046875 2.582031 -19.765625 2.96875 -21.421875 C 3.363281 -23.078125 3.957031 -24.601562 4.75 -26 C 5.539062 -27.40625 6.53125 -28.628906 7.71875 -29.671875 C 8.914062 -30.710938 10.328125 -31.523438 11.953125 -32.109375 C 13.585938 -32.691406 15.429688 -32.984375 17.484375 -32.984375 C 19.535156 -32.984375 21.375 -32.691406 23 -32.109375 C 24.625 -31.523438 26.035156 -30.710938 27.234375 -29.671875 C 28.441406 -28.628906 29.441406 -27.40625 30.234375 -26 C 31.023438 -24.601562 31.613281 -23.078125 32 -21.421875 C 32.394531 -19.765625 32.59375 -18.046875 32.59375 -16.265625 C 32.59375 -14.472656 32.394531 -12.75 32 -11.09375 C 31.613281 -9.445312 31.023438 -7.921875 30.234375 -6.515625 C 29.441406 -5.117188 28.441406 -3.894531 27.234375 -2.84375 C 26.035156 -1.800781 24.625 -0.988281 23 -0.40625 C 21.375 0.164062 19.535156 0.453125 17.484375 0.453125 Z M 17.484375 -3.75 C 19.347656 -3.75 20.9375 -4.085938 22.25 -4.765625 C 23.5625 -5.441406 24.628906 -6.363281 25.453125 -7.53125 C 26.273438 -8.707031 26.875 -10.046875 27.25 -11.546875 C 27.632812 -13.046875 27.828125 -14.617188 27.828125 -16.265625 C 27.828125 -17.898438 27.632812 -19.460938 27.25 -20.953125 C 26.875 -22.453125 26.273438 -23.789062 25.453125 -24.96875 C 24.628906 -26.144531 23.5625 -27.066406 22.25 -27.734375 C 20.9375 -28.410156 19.347656 -28.75 17.484375 -28.75 C 15.628906 -28.75 14.046875 -28.410156 12.734375 -27.734375 C 11.421875 -27.066406 10.359375 -26.144531 9.546875 -24.96875 C 8.734375 -23.789062 8.132812 -22.453125 7.75 -20.953125 C 7.363281 -19.460938 7.171875 -17.898438 7.171875 -16.265625 C 7.171875 -14.617188 7.363281 -13.046875 7.75 -11.546875 C 8.132812 -10.046875 8.734375 -8.707031 9.546875 -7.53125 C 10.359375 -6.363281 11.421875 -5.441406 12.734375 -4.765625 C 14.046875 -4.085938 15.628906 -3.75 17.484375 -3.75 Z M 17.484375 -3.75 "/></g></g></g><g fill="#036335" fill-opacity="1"><g transform="translate(722.029321, 878.524176)"><g><path d="M 20.46875 -22.984375 L 20.46875 -19.59375 L 7.296875 -3.765625 L 20.46875 -3.765625 L 20.46875 0 L 1.375 0 L 1.375 -3.125 L 14.953125 -19.28125 L 2.046875 -19.28125 L 2.046875 -22.984375 Z M 20.46875 -22.984375 "/></g></g></g><g fill="#036335" fill-opacity="1"><g transform="translate(745.146248, 878.524176)"><g><path d="M 12.671875 0.390625 C 10.816406 0.390625 9.195312 0.0703125 7.8125 -0.5625 C 6.4375 -1.195312 5.296875 -2.066406 4.390625 -3.171875 C 3.484375 -4.273438 2.804688 -5.53125 2.359375 -6.9375 C 1.921875 -8.351562 1.703125 -9.835938 1.703125 -11.390625 C 1.703125 -12.898438 1.914062 -14.367188 2.34375 -15.796875 C 2.769531 -17.222656 3.421875 -18.507812 4.296875 -19.65625 C 5.171875 -20.800781 6.269531 -21.707031 7.59375 -22.375 C 8.925781 -23.039062 10.488281 -23.375 12.28125 -23.375 C 13.832031 -23.375 15.175781 -23.148438 16.3125 -22.703125 C 17.457031 -22.253906 18.421875 -21.644531 19.203125 -20.875 C 19.984375 -20.101562 20.613281 -19.222656 21.09375 -18.234375 C 21.570312 -17.253906 21.914062 -16.226562 22.125 -15.15625 C 22.34375 -14.082031 22.453125 -13.023438 22.453125 -11.984375 C 22.453125 -11.597656 22.4375 -11.222656 22.40625 -10.859375 C 22.375 -10.492188 22.34375 -10.21875 22.3125 -10.03125 L 6.421875 -10.03125 C 6.492188 -8.832031 6.765625 -7.742188 7.234375 -6.765625 C 7.703125 -5.796875 8.382812 -5.023438 9.28125 -4.453125 C 10.175781 -3.878906 11.304688 -3.59375 12.671875 -3.59375 C 13.859375 -3.59375 14.941406 -3.765625 15.921875 -4.109375 C 16.910156 -4.460938 17.828125 -5.109375 18.671875 -6.046875 L 21.765625 -3.453125 C 20.503906 -2.128906 19.140625 -1.15625 17.671875 -0.53125 C 16.210938 0.0820312 14.546875 0.390625 12.671875 0.390625 Z M 6.421875 -13.40625 L 18.125 -13.40625 C 18.0625 -14.570312 17.8125 -15.625 17.375 -16.5625 C 16.9375 -17.507812 16.300781 -18.265625 15.46875 -18.828125 C 14.632812 -19.390625 13.566406 -19.671875 12.265625 -19.671875 C 11.003906 -19.671875 9.960938 -19.382812 9.140625 -18.8125 C 8.316406 -18.25 7.679688 -17.488281 7.234375 -16.53125 C 6.796875 -15.582031 6.523438 -14.539062 6.421875 -13.40625 Z M 6.421875 -13.40625 "/></g></g></g><g fill="#036335" fill-opacity="1"><g transform="translate(770.264471, 878.524176)"><g><path d="M 7.75 0.453125 C 6.21875 0.453125 5.128906 0.03125 4.484375 -0.8125 C 3.835938 -1.664062 3.515625 -2.925781 3.515625 -4.59375 L 3.515625 -32.5 L 7.984375 -32.5 L 7.984375 -4.90625 C 7.984375 -4.78125 8.023438 -4.601562 8.109375 -4.375 C 8.191406 -4.15625 8.335938 -3.953125 8.546875 -3.765625 C 8.765625 -3.585938 9.066406 -3.5 9.453125 -3.5 C 9.742188 -3.5 10.066406 -3.515625 10.421875 -3.546875 C 10.773438 -3.578125 11.085938 -3.625 11.359375 -3.6875 L 11.359375 0 C 10.890625 0.101562 10.328125 0.203125 9.671875 0.296875 C 9.015625 0.398438 8.375 0.453125 7.75 0.453125 Z M 7.75 0.453125 "/></g></g></g><g fill="#036335" fill-opacity="1"><g transform="translate(783.720295, 878.524176)"><g/></g></g><g fill="#036335" fill-opacity="1"><g transform="translate(796.578098, 878.524176)"><g><path d="M 4.546875 0 L 4.546875 -32.5 L 25.875 -32.5 L 25.875 -28.3125 L 9.21875 -28.3125 L 9.21875 -18.328125 L 24.15625 -18.328125 L 24.15625 -14.1875 L 9.21875 -14.1875 L 9.21875 -4.34375 L 25.875 -4.34375 L 25.875 0 Z M 4.546875 0 "/></g></g></g><g fill="#036335" fill-opacity="1"><g transform="translate(826.089753, 878.524176)"><g><path d="M 11.59375 -26.296875 C 9.3125 -26.296875 7.546875 -26.832031 6.296875 -27.90625 C 5.054688 -28.976562 4.4375 -30.507812 4.4375 -32.5 L 7.953125 -32.5 C 7.953125 -31.457031 8.304688 -30.648438 9.015625 -30.078125 C 9.722656 -29.503906 10.582031 -29.21875 11.59375 -29.21875 C 12.625 -29.21875 13.484375 -29.507812 14.171875 -30.09375 C 14.859375 -30.675781 15.203125 -31.476562 15.203125 -32.5 L 18.71875 -32.5 C 18.71875 -30.445312 18.082031 -28.898438 16.8125 -27.859375 C 15.539062 -26.816406 13.800781 -26.296875 11.59375 -26.296875 Z M 12.921875 -3.265625 C 13.828125 -3.140625 14.722656 -2.992188 15.609375 -2.828125 C 16.492188 -2.660156 17.328125 -2.4375 18.109375 -2.15625 C 18.898438 -1.882812 19.597656 -1.515625 20.203125 -1.046875 C 20.804688 -0.578125 21.28125 0.015625 21.625 0.734375 C 21.976562 1.453125 22.15625 2.332031 22.15625 3.375 C 22.15625 4.625 21.898438 5.703125 21.390625 6.609375 C 20.890625 7.523438 20.191406 8.285156 19.296875 8.890625 C 18.410156 9.492188 17.382812 9.945312 16.21875 10.25 C 15.050781 10.550781 13.816406 10.703125 12.515625 10.703125 C 10.398438 10.703125 8.570312 10.351562 7.03125 9.65625 C 5.488281 8.957031 4.296875 8 3.453125 6.78125 C 2.617188 5.570312 2.203125 4.21875 2.203125 2.71875 C 2.203125 2.5 2.207031 2.320312 2.21875 2.1875 C 2.238281 2.050781 2.257812 1.910156 2.28125 1.765625 L 5.171875 -1.015625 C 4.410156 -1.453125 3.78125 -2.039062 3.28125 -2.78125 C 2.789062 -3.53125 2.546875 -4.484375 2.546875 -5.640625 C 2.546875 -6.492188 2.695312 -7.269531 3 -7.96875 C 3.3125 -8.664062 3.800781 -9.300781 4.46875 -9.875 C 3.851562 -10.570312 3.375 -11.367188 3.03125 -12.265625 C 2.695312 -13.171875 2.53125 -14.132812 2.53125 -15.15625 C 2.53125 -16.382812 2.765625 -17.503906 3.234375 -18.515625 C 3.703125 -19.523438 4.347656 -20.390625 5.171875 -21.109375 C 6.003906 -21.835938 6.957031 -22.394531 8.03125 -22.78125 C 9.113281 -23.175781 10.28125 -23.375 11.53125 -23.375 C 12.632812 -23.375 13.671875 -23.21875 14.640625 -22.90625 C 15.617188 -22.601562 16.488281 -22.160156 17.25 -21.578125 L 20.703125 -24.640625 L 23.125 -21.640625 L 19.578125 -18.84375 C 20.191406 -17.6875 20.5 -16.394531 20.5 -14.96875 C 20.5 -13.71875 20.265625 -12.59375 19.796875 -11.59375 C 19.335938 -10.59375 18.703125 -9.738281 17.890625 -9.03125 C 17.078125 -8.332031 16.132812 -7.796875 15.0625 -7.421875 C 13.988281 -7.046875 12.835938 -6.859375 11.609375 -6.859375 C 10.035156 -6.859375 8.585938 -7.164062 7.265625 -7.78125 C 6.703125 -7.394531 6.421875 -6.894531 6.421875 -6.28125 C 6.421875 -5.5625 6.707031 -5.015625 7.28125 -4.640625 C 7.851562 -4.265625 8.632812 -3.984375 9.625 -3.796875 C 10.613281 -3.609375 11.710938 -3.429688 12.921875 -3.265625 Z M 11.59375 -19.890625 C 10.65625 -19.890625 9.847656 -19.675781 9.171875 -19.25 C 8.503906 -18.820312 7.992188 -18.25 7.640625 -17.53125 C 7.285156 -16.820312 7.109375 -16.03125 7.109375 -15.15625 C 7.109375 -13.78125 7.503906 -12.660156 8.296875 -11.796875 C 9.085938 -10.941406 10.1875 -10.515625 11.59375 -10.515625 C 13 -10.515625 14.09375 -10.941406 14.875 -11.796875 C 15.664062 -12.660156 16.0625 -13.78125 16.0625 -15.15625 C 16.0625 -16.050781 15.882812 -16.851562 15.53125 -17.5625 C 15.175781 -18.269531 14.664062 -18.832031 14 -19.25 C 13.332031 -19.675781 12.53125 -19.890625 11.59375 -19.890625 Z M 12.671875 7.015625 C 13.671875 7.015625 14.570312 6.894531 15.375 6.65625 C 16.175781 6.414062 16.816406 6.054688 17.296875 5.578125 C 17.785156 5.109375 18.03125 4.519531 18.03125 3.8125 C 18.03125 3.226562 17.863281 2.757812 17.53125 2.40625 C 17.207031 2.0625 16.753906 1.789062 16.171875 1.59375 C 15.585938 1.40625 14.894531 1.25 14.09375 1.125 C 13.300781 1 12.429688 0.867188 11.484375 0.734375 C 10.929688 0.660156 10.363281 0.570312 9.78125 0.46875 C 9.207031 0.375 8.628906 0.253906 8.046875 0.109375 L 6.09375 2.8125 C 6.15625 3.601562 6.457031 4.316406 7 4.953125 C 7.550781 5.585938 8.304688 6.085938 9.265625 6.453125 C 10.234375 6.828125 11.367188 7.015625 12.671875 7.015625 Z M 12.671875 7.015625 "/></g></g></g><g fill="#036335" fill-opacity="1"><g transform="translate(850.862914, 878.524176)"><g><path d="M 3.359375 -27.71875 L 3.359375 -32.5 L 8.234375 -32.5 L 8.234375 -27.71875 Z M 3.640625 0 L 3.640625 -22.984375 L 8.078125 -22.984375 L 8.078125 0 Z M 3.640625 0 "/></g></g></g><g fill="#036335" fill-opacity="1"><g transform="translate(863.490644, 878.524176)"><g><path d="M 10.828125 0.453125 C 8.703125 0.453125 7.117188 -0.148438 6.078125 -1.359375 C 5.035156 -2.566406 4.515625 -4.179688 4.515625 -6.203125 L 4.515625 -19.28125 L 0.8125 -19.28125 L 0.8125 -22.984375 L 4.546875 -22.984375 L 4.546875 -28.40625 L 8.921875 -32 L 8.921875 -22.984375 L 14.75 -22.984375 L 14.75 -19.28125 L 8.921875 -19.28125 L 8.921875 -6.671875 C 8.921875 -5.492188 9.1875 -4.644531 9.71875 -4.125 C 10.25 -3.613281 10.90625 -3.359375 11.6875 -3.359375 C 12.175781 -3.359375 12.660156 -3.429688 13.140625 -3.578125 C 13.628906 -3.722656 14.054688 -3.890625 14.421875 -4.078125 L 14.421875 -0.109375 C 14.085938 0.0234375 13.59375 0.148438 12.9375 0.265625 C 12.289062 0.390625 11.585938 0.453125 10.828125 0.453125 Z M 10.828125 0.453125 "/></g></g></g><g fill="#036335" fill-opacity="1"><g transform="translate(880.787929, 878.524176)"><g><path d="M 3.359375 -27.71875 L 3.359375 -32.5 L 8.234375 -32.5 L 8.234375 -27.71875 Z M 3.640625 0 L 3.640625 -22.984375 L 8.078125 -22.984375 L 8.078125 0 Z M 3.640625 0 "/></g></g></g><g fill="#036335" fill-opacity="1"><g transform="translate(893.415705, 878.524176)"><g><path d="M 3.640625 0 L 3.640625 -22.984375 L 8.125 -22.984375 L 8.125 -19.96875 C 8.71875 -21.050781 9.554688 -21.90625 10.640625 -22.53125 C 11.734375 -23.15625 12.910156 -23.46875 14.171875 -23.46875 C 15.691406 -23.46875 17.03125 -23.101562 18.1875 -22.375 C 19.351562 -21.644531 20.269531 -20.519531 20.9375 -19 C 21.75 -20.488281 22.789062 -21.601562 24.0625 -22.34375 C 25.332031 -23.09375 26.742188 -23.46875 28.296875 -23.46875 C 29.753906 -23.46875 31 -23.207031 32.03125 -22.6875 C 33.0625 -22.164062 33.910156 -21.453125 34.578125 -20.546875 C 35.242188 -19.648438 35.734375 -18.625 36.046875 -17.46875 C 36.367188 -16.320312 36.53125 -15.128906 36.53125 -13.890625 L 36.53125 0 L 32 0 L 32 -13.390625 C 32 -14.117188 31.929688 -14.84375 31.796875 -15.5625 C 31.671875 -16.289062 31.445312 -16.945312 31.125 -17.53125 C 30.800781 -18.125 30.359375 -18.59375 29.796875 -18.9375 C 29.234375 -19.28125 28.519531 -19.453125 27.65625 -19.453125 C 26.789062 -19.453125 26.023438 -19.265625 25.359375 -18.890625 C 24.691406 -18.515625 24.128906 -18.003906 23.671875 -17.359375 C 23.222656 -16.722656 22.878906 -16 22.640625 -15.1875 C 22.410156 -14.375 22.296875 -13.535156 22.296875 -12.671875 L 22.296875 0 L 17.78125 0 L 17.78125 -13.484375 C 17.78125 -14.210938 17.71875 -14.929688 17.59375 -15.640625 C 17.46875 -16.359375 17.25 -17.003906 16.9375 -17.578125 C 16.625 -18.160156 16.1875 -18.617188 15.625 -18.953125 C 15.070312 -19.285156 14.363281 -19.453125 13.5 -19.453125 C 12.644531 -19.453125 11.882812 -19.253906 11.21875 -18.859375 C 10.550781 -18.460938 9.984375 -17.921875 9.515625 -17.234375 C 9.054688 -16.554688 8.707031 -15.785156 8.46875 -14.921875 C 8.238281 -14.066406 8.125 -13.1875 8.125 -12.28125 L 8.125 0 Z M 3.640625 0 "/></g></g></g><g fill="#036335" fill-opacity="1"><g transform="translate(933.899589, 878.524176)"><g/></g></g><g fill="#036335" fill-opacity="1"><g transform="translate(946.757391, 878.524176)"><g><path d="M 11.34375 -37.21875 L 11.34375 -42 L 15.625 -42 L 15.625 -37.21875 Z M 19.28125 -37.21875 L 19.28125 -42 L 23.5625 -42 L 23.5625 -37.21875 Z M 17.484375 0.453125 C 15.429688 0.453125 13.585938 0.164062 11.953125 -0.40625 C 10.328125 -0.988281 8.914062 -1.800781 7.71875 -2.84375 C 6.53125 -3.894531 5.539062 -5.117188 4.75 -6.515625 C 3.957031 -7.921875 3.363281 -9.445312 2.96875 -11.09375 C 2.582031 -12.75 2.390625 -14.472656 2.390625 -16.265625 C 2.390625 -18.046875 2.582031 -19.765625 2.96875 -21.421875 C 3.363281 -23.078125 3.957031 -24.601562 4.75 -26 C 5.539062 -27.40625 6.53125 -28.628906 7.71875 -29.671875 C 8.914062 -30.710938 10.328125 -31.523438 11.953125 -32.109375 C 13.585938 -32.691406 15.429688 -32.984375 17.484375 -32.984375 C 19.535156 -32.984375 21.375 -32.691406 23 -32.109375 C 24.625 -31.523438 26.035156 -30.710938 27.234375 -29.671875 C 28.441406 -28.628906 29.441406 -27.40625 30.234375 -26 C 31.023438 -24.601562 31.613281 -23.078125 32 -21.421875 C 32.394531 -19.765625 32.59375 -18.046875 32.59375 -16.265625 C 32.59375 -14.472656 32.394531 -12.75 32 -11.09375 C 31.613281 -9.445312 31.023438 -7.921875 30.234375 -6.515625 C 29.441406 -5.117188 28.441406 -3.894531 27.234375 -2.84375 C 26.035156 -1.800781 24.625 -0.988281 23 -0.40625 C 21.375 0.164062 19.535156 0.453125 17.484375 0.453125 Z M 17.484375 -3.75 C 19.347656 -3.75 20.9375 -4.085938 22.25 -4.765625 C 23.5625 -5.441406 24.628906 -6.363281 25.453125 -7.53125 C 26.273438 -8.707031 26.875 -10.046875 27.25 -11.546875 C 27.632812 -13.046875 27.828125 -14.617188 27.828125 -16.265625 C 27.828125 -17.898438 27.632812 -19.460938 27.25 -20.953125 C 26.875 -22.453125 26.273438 -23.789062 25.453125 -24.96875 C 24.628906 -26.144531 23.5625 -27.066406 22.25 -27.734375 C 20.9375 -28.410156 19.347656 -28.75 17.484375 -28.75 C 15.628906 -28.75 14.046875 -28.410156 12.734375 -27.734375 C 11.421875 -27.066406 10.359375 -26.144531 9.546875 -24.96875 C 8.734375 -23.789062 8.132812 -22.453125 7.75 -20.953125 C 7.363281 -19.460938 7.171875 -17.898438 7.171875 -16.265625 C 7.171875 -14.617188 7.363281 -13.046875 7.75 -11.546875 C 8.132812 -10.046875 8.734375 -8.707031 9.546875 -7.53125 C 10.359375 -6.363281 11.421875 -5.441406 12.734375 -4.765625 C 14.046875 -4.085938 15.628906 -3.75 17.484375 -3.75 Z M 17.484375 -3.75 "/></g></g></g><g fill="#036335" fill-opacity="1"><g transform="translate(982.686801, 878.524176)"><g><path d="M 11.59375 -26.296875 C 9.3125 -26.296875 7.546875 -26.832031 6.296875 -27.90625 C 5.054688 -28.976562 4.4375 -30.507812 4.4375 -32.5 L 7.953125 -32.5 C 7.953125 -31.457031 8.304688 -30.648438 9.015625 -30.078125 C 9.722656 -29.503906 10.582031 -29.21875 11.59375 -29.21875 C 12.625 -29.21875 13.484375 -29.507812 14.171875 -30.09375 C 14.859375 -30.675781 15.203125 -31.476562 15.203125 -32.5 L 18.71875 -32.5 C 18.71875 -30.445312 18.082031 -28.898438 16.8125 -27.859375 C 15.539062 -26.816406 13.800781 -26.296875 11.59375 -26.296875 Z M 12.921875 -3.265625 C 13.828125 -3.140625 14.722656 -2.992188 15.609375 -2.828125 C 16.492188 -2.660156 17.328125 -2.4375 18.109375 -2.15625 C 18.898438 -1.882812 19.597656 -1.515625 20.203125 -1.046875 C 20.804688 -0.578125 21.28125 0.015625 21.625 0.734375 C 21.976562 1.453125 22.15625 2.332031 22.15625 3.375 C 22.15625 4.625 21.898438 5.703125 21.390625 6.609375 C 20.890625 7.523438 20.191406 8.285156 19.296875 8.890625 C 18.410156 9.492188 17.382812 9.945312 16.21875 10.25 C 15.050781 10.550781 13.816406 10.703125 12.515625 10.703125 C 10.398438 10.703125 8.570312 10.351562 7.03125 9.65625 C 5.488281 8.957031 4.296875 8 3.453125 6.78125 C 2.617188 5.570312 2.203125 4.21875 2.203125 2.71875 C 2.203125 2.5 2.207031 2.320312 2.21875 2.1875 C 2.238281 2.050781 2.257812 1.910156 2.28125 1.765625 L 5.171875 -1.015625 C 4.410156 -1.453125 3.78125 -2.039062 3.28125 -2.78125 C 2.789062 -3.53125 2.546875 -4.484375 2.546875 -5.640625 C 2.546875 -6.492188 2.695312 -7.269531 3 -7.96875 C 3.3125 -8.664062 3.800781 -9.300781 4.46875 -9.875 C 3.851562 -10.570312 3.375 -11.367188 3.03125 -12.265625 C 2.695312 -13.171875 2.53125 -14.132812 2.53125 -15.15625 C 2.53125 -16.382812 2.765625 -17.503906 3.234375 -18.515625 C 3.703125 -19.523438 4.347656 -20.390625 5.171875 -21.109375 C 6.003906 -21.835938 6.957031 -22.394531 8.03125 -22.78125 C 9.113281 -23.175781 10.28125 -23.375 11.53125 -23.375 C 12.632812 -23.375 13.671875 -23.21875 14.640625 -22.90625 C 15.617188 -22.601562 16.488281 -22.160156 17.25 -21.578125 L 20.703125 -24.640625 L 23.125 -21.640625 L 19.578125 -18.84375 C 20.191406 -17.6875 20.5 -16.394531 20.5 -14.96875 C 20.5 -13.71875 20.265625 -12.59375 19.796875 -11.59375 C 19.335938 -10.59375 18.703125 -9.738281 17.890625 -9.03125 C 17.078125 -8.332031 16.132812 -7.796875 15.0625 -7.421875 C 13.988281 -7.046875 12.835938 -6.859375 11.609375 -6.859375 C 10.035156 -6.859375 8.585938 -7.164062 7.265625 -7.78125 C 6.703125 -7.394531 6.421875 -6.894531 6.421875 -6.28125 C 6.421875 -5.5625 6.707031 -5.015625 7.28125 -4.640625 C 7.851562 -4.265625 8.632812 -3.984375 9.625 -3.796875 C 10.613281 -3.609375 11.710938 -3.429688 12.921875 -3.265625 Z M 11.59375 -19.890625 C 10.65625 -19.890625 9.847656 -19.675781 9.171875 -19.25 C 8.503906 -18.820312 7.992188 -18.25 7.640625 -17.53125 C 7.285156 -16.820312 7.109375 -16.03125 7.109375 -15.15625 C 7.109375 -13.78125 7.503906 -12.660156 8.296875 -11.796875 C 9.085938 -10.941406 10.1875 -10.515625 11.59375 -10.515625 C 13 -10.515625 14.09375 -10.941406 14.875 -11.796875 C 15.664062 -12.660156 16.0625 -13.78125 16.0625 -15.15625 C 16.0625 -16.050781 15.882812 -16.851562 15.53125 -17.5625 C 15.175781 -18.269531 14.664062 -18.832031 14 -19.25 C 13.332031 -19.675781 12.53125 -19.890625 11.59375 -19.890625 Z M 12.671875 7.015625 C 13.671875 7.015625 14.570312 6.894531 15.375 6.65625 C 16.175781 6.414062 16.816406 6.054688 17.296875 5.578125 C 17.785156 5.109375 18.03125 4.519531 18.03125 3.8125 C 18.03125 3.226562 17.863281 2.757812 17.53125 2.40625 C 17.207031 2.0625 16.753906 1.789062 16.171875 1.59375 C 15.585938 1.40625 14.894531 1.25 14.09375 1.125 C 13.300781 1 12.429688 0.867188 11.484375 0.734375 C 10.929688 0.660156 10.363281 0.570312 9.78125 0.46875 C 9.207031 0.375 8.628906 0.253906 8.046875 0.109375 L 6.09375 2.8125 C 6.15625 3.601562 6.457031 4.316406 7 4.953125 C 7.550781 5.585938 8.304688 6.085938 9.265625 6.453125 C 10.234375 6.828125 11.367188 7.015625 12.671875 7.015625 Z M 12.671875 7.015625 "/></g></g></g><g fill="#036335" fill-opacity="1"><g transform="translate(1007.459916, 878.524176)"><g><path d="M 3.640625 0 L 3.640625 -22.984375 L 8 -22.984375 L 8 -19 C 8.375 -19.9375 8.894531 -20.738281 9.5625 -21.40625 C 10.226562 -22.070312 10.988281 -22.582031 11.84375 -22.9375 C 12.707031 -23.289062 13.585938 -23.46875 14.484375 -23.46875 C 15.273438 -23.46875 16.007812 -23.34375 16.6875 -23.09375 C 17.375 -22.851562 17.953125 -22.507812 18.421875 -22.0625 L 16.46875 -18.3125 C 15.71875 -18.875 14.828125 -19.15625 13.796875 -19.15625 C 12.691406 -19.15625 11.695312 -18.84375 10.8125 -18.21875 C 9.9375 -17.59375 9.238281 -16.648438 8.71875 -15.390625 C 8.207031 -14.128906 7.953125 -12.550781 7.953125 -10.65625 L 7.953125 0 Z M 3.640625 0 "/></g></g></g><g fill="#036335" fill-opacity="1"><g transform="translate(1026.919448, 878.524176)"><g><path d="M 12.671875 0.390625 C 10.816406 0.390625 9.195312 0.0703125 7.8125 -0.5625 C 6.4375 -1.195312 5.296875 -2.066406 4.390625 -3.171875 C 3.484375 -4.273438 2.804688 -5.53125 2.359375 -6.9375 C 1.921875 -8.351562 1.703125 -9.835938 1.703125 -11.390625 C 1.703125 -12.898438 1.914062 -14.367188 2.34375 -15.796875 C 2.769531 -17.222656 3.421875 -18.507812 4.296875 -19.65625 C 5.171875 -20.800781 6.269531 -21.707031 7.59375 -22.375 C 8.925781 -23.039062 10.488281 -23.375 12.28125 -23.375 C 13.832031 -23.375 15.175781 -23.148438 16.3125 -22.703125 C 17.457031 -22.253906 18.421875 -21.644531 19.203125 -20.875 C 19.984375 -20.101562 20.613281 -19.222656 21.09375 -18.234375 C 21.570312 -17.253906 21.914062 -16.226562 22.125 -15.15625 C 22.34375 -14.082031 22.453125 -13.023438 22.453125 -11.984375 C 22.453125 -11.597656 22.4375 -11.222656 22.40625 -10.859375 C 22.375 -10.492188 22.34375 -10.21875 22.3125 -10.03125 L 6.421875 -10.03125 C 6.492188 -8.832031 6.765625 -7.742188 7.234375 -6.765625 C 7.703125 -5.796875 8.382812 -5.023438 9.28125 -4.453125 C 10.175781 -3.878906 11.304688 -3.59375 12.671875 -3.59375 C 13.859375 -3.59375 14.941406 -3.765625 15.921875 -4.109375 C 16.910156 -4.460938 17.828125 -5.109375 18.671875 -6.046875 L 21.765625 -3.453125 C 20.503906 -2.128906 19.140625 -1.15625 17.671875 -0.53125 C 16.210938 0.0820312 14.546875 0.390625 12.671875 0.390625 Z M 6.421875 -13.40625 L 18.125 -13.40625 C 18.0625 -14.570312 17.8125 -15.625 17.375 -16.5625 C 16.9375 -17.507812 16.300781 -18.265625 15.46875 -18.828125 C 14.632812 -19.390625 13.566406 -19.671875 12.265625 -19.671875 C 11.003906 -19.671875 9.960938 -19.382812 9.140625 -18.8125 C 8.316406 -18.25 7.679688 -17.488281 7.234375 -16.53125 C 6.796875 -15.582031 6.523438 -14.539062 6.421875 -13.40625 Z M 6.421875 -13.40625 "/></g></g></g><g fill="#036335" fill-opacity="1"><g transform="translate(1052.037671, 878.524176)"><g><path d="M 10.828125 0.453125 C 8.703125 0.453125 7.117188 -0.148438 6.078125 -1.359375 C 5.035156 -2.566406 4.515625 -4.179688 4.515625 -6.203125 L 4.515625 -19.28125 L 0.8125 -19.28125 L 0.8125 -22.984375 L 4.546875 -22.984375 L 4.546875 -28.40625 L 8.921875 -32 L 8.921875 -22.984375 L 14.75 -22.984375 L 14.75 -19.28125 L 8.921875 -19.28125 L 8.921875 -6.671875 C 8.921875 -5.492188 9.1875 -4.644531 9.71875 -4.125 C 10.25 -3.613281 10.90625 -3.359375 11.6875 -3.359375 C 12.175781 -3.359375 12.660156 -3.429688 13.140625 -3.578125 C 13.628906 -3.722656 14.054688 -3.890625 14.421875 -4.078125 L 14.421875 -0.109375 C 14.085938 0.0234375 13.59375 0.148438 12.9375 0.265625 C 12.289062 0.390625 11.585938 0.453125 10.828125 0.453125 Z M 10.828125 0.453125 "/></g></g></g><g fill="#036335" fill-opacity="1"><g transform="translate(1069.334911, 878.524176)"><g><path d="M 3.640625 0 L 3.640625 -22.984375 L 8.125 -22.984375 L 8.125 -19.96875 C 8.71875 -21.050781 9.554688 -21.90625 10.640625 -22.53125 C 11.734375 -23.15625 12.910156 -23.46875 14.171875 -23.46875 C 15.691406 -23.46875 17.03125 -23.101562 18.1875 -22.375 C 19.351562 -21.644531 20.269531 -20.519531 20.9375 -19 C 21.75 -20.488281 22.789062 -21.601562 24.0625 -22.34375 C 25.332031 -23.09375 26.742188 -23.46875 28.296875 -23.46875 C 29.753906 -23.46875 31 -23.207031 32.03125 -22.6875 C 33.0625 -22.164062 33.910156 -21.453125 34.578125 -20.546875 C 35.242188 -19.648438 35.734375 -18.625 36.046875 -17.46875 C 36.367188 -16.320312 36.53125 -15.128906 36.53125 -13.890625 L 36.53125 0 L 32 0 L 32 -13.390625 C 32 -14.117188 31.929688 -14.84375 31.796875 -15.5625 C 31.671875 -16.289062 31.445312 -16.945312 31.125 -17.53125 C 30.800781 -18.125 30.359375 -18.59375 29.796875 -18.9375 C 29.234375 -19.28125 28.519531 -19.453125 27.65625 -19.453125 C 26.789062 -19.453125 26.023438 -19.265625 25.359375 -18.890625 C 24.691406 -18.515625 24.128906 -18.003906 23.671875 -17.359375 C 23.222656 -16.722656 22.878906 -16 22.640625 -15.1875 C 22.410156 -14.375 22.296875 -13.535156 22.296875 -12.671875 L 22.296875 0 L 17.78125 0 L 17.78125 -13.484375 C 17.78125 -14.210938 17.71875 -14.929688 17.59375 -15.640625 C 17.46875 -16.359375 17.25 -17.003906 16.9375 -17.578125 C 16.625 -18.160156 16.1875 -18.617188 15.625 -18.953125 C 15.070312 -19.285156 14.363281 -19.453125 13.5 -19.453125 C 12.644531 -19.453125 11.882812 -19.253906 11.21875 -18.859375 C 10.550781 -18.460938 9.984375 -17.921875 9.515625 -17.234375 C 9.054688 -16.554688 8.707031 -15.785156 8.46875 -14.921875 C 8.238281 -14.066406 8.125 -13.1875 8.125 -12.28125 L 8.125 0 Z M 3.640625 0 "/></g></g></g><g fill="#036335" fill-opacity="1"><g transform="translate(1109.818886, 878.524176)"><g><path d="M 12.671875 0.390625 C 10.816406 0.390625 9.195312 0.0703125 7.8125 -0.5625 C 6.4375 -1.195312 5.296875 -2.066406 4.390625 -3.171875 C 3.484375 -4.273438 2.804688 -5.53125 2.359375 -6.9375 C 1.921875 -8.351562 1.703125 -9.835938 1.703125 -11.390625 C 1.703125 -12.898438 1.914062 -14.367188 2.34375 -15.796875 C 2.769531 -17.222656 3.421875 -18.507812 4.296875 -19.65625 C 5.171875 -20.800781 6.269531 -21.707031 7.59375 -22.375 C 8.925781 -23.039062 10.488281 -23.375 12.28125 -23.375 C 13.832031 -23.375 15.175781 -23.148438 16.3125 -22.703125 C 17.457031 -22.253906 18.421875 -21.644531 19.203125 -20.875 C 19.984375 -20.101562 20.613281 -19.222656 21.09375 -18.234375 C 21.570312 -17.253906 21.914062 -16.226562 22.125 -15.15625 C 22.34375 -14.082031 22.453125 -13.023438 22.453125 -11.984375 C 22.453125 -11.597656 22.4375 -11.222656 22.40625 -10.859375 C 22.375 -10.492188 22.34375 -10.21875 22.3125 -10.03125 L 6.421875 -10.03125 C 6.492188 -8.832031 6.765625 -7.742188 7.234375 -6.765625 C 7.703125 -5.796875 8.382812 -5.023438 9.28125 -4.453125 C 10.175781 -3.878906 11.304688 -3.59375 12.671875 -3.59375 C 13.859375 -3.59375 14.941406 -3.765625 15.921875 -4.109375 C 16.910156 -4.460938 17.828125 -5.109375 18.671875 -6.046875 L 21.765625 -3.453125 C 20.503906 -2.128906 19.140625 -1.15625 17.671875 -0.53125 C 16.210938 0.0820312 14.546875 0.390625 12.671875 0.390625 Z M 6.421875 -13.40625 L 18.125 -13.40625 C 18.0625 -14.570312 17.8125 -15.625 17.375 -16.5625 C 16.9375 -17.507812 16.300781 -18.265625 15.46875 -18.828125 C 14.632812 -19.390625 13.566406 -19.671875 12.265625 -19.671875 C 11.003906 -19.671875 9.960938 -19.382812 9.140625 -18.8125 C 8.316406 -18.25 7.679688 -17.488281 7.234375 -16.53125 C 6.796875 -15.582031 6.523438 -14.539062 6.421875 -13.40625 Z M 6.421875 -13.40625 "/></g></g></g><g fill="#036335" fill-opacity="1"><g transform="translate(1134.937017, 878.524176)"><g><path d="M 3.640625 0 L 3.640625 -22.984375 L 8.046875 -22.984375 L 8.046875 -19.59375 C 8.890625 -20.84375 9.929688 -21.789062 11.171875 -22.4375 C 12.421875 -23.09375 13.75 -23.421875 15.15625 -23.421875 C 16.582031 -23.421875 17.804688 -23.160156 18.828125 -22.640625 C 19.847656 -22.117188 20.675781 -21.40625 21.3125 -20.5 C 21.945312 -19.601562 22.410156 -18.585938 22.703125 -17.453125 C 23.003906 -16.316406 23.15625 -15.128906 23.15625 -13.890625 L 23.15625 0 L 18.75 0 L 18.75 -13.390625 C 18.75 -14.148438 18.660156 -14.890625 18.484375 -15.609375 C 18.304688 -16.335938 18.023438 -16.988281 17.640625 -17.5625 C 17.253906 -18.132812 16.753906 -18.585938 16.140625 -18.921875 C 15.535156 -19.265625 14.796875 -19.4375 13.921875 -19.4375 C 12.796875 -19.4375 11.785156 -19.175781 10.890625 -18.65625 C 10.003906 -18.132812 9.304688 -17.34375 8.796875 -16.28125 C 8.296875 -15.226562 8.046875 -13.878906 8.046875 -12.234375 L 8.046875 0 Z M 3.640625 0 "/></g></g></g><g fill="#036335" fill-opacity="1"><g transform="translate(1162.079471, 878.524176)"><g><path d="M 3.359375 -27.71875 L 3.359375 -32.5 L 8.234375 -32.5 L 8.234375 -27.71875 Z M 3.640625 0 L 3.640625 -22.984375 L 8.078125 -22.984375 L 8.078125 0 Z M 3.640625 0 "/></g></g></g></svg>